<?xml version="1.0" encoding="UTF-8"?>
<svg id="Layer_2" data-name="Layer 2" xmlns="http://www.w3.org/2000/svg" viewBox="0 0 364.45 411.7">
  <defs>
    <style>
      .cls-1 {
        fill: #f35326;
      }

      .cls-1, .cls-2, .cls-3, .cls-4, .cls-5 {
        stroke-width: 0px;
      }

      .cls-2 {
        fill: #d3d1c6;
      }

      .cls-3 {
        fill: #ecece6;
      }

      .cls-4 {
        fill: #102d36;
      }

      .cls-5 {
        fill: #3cc0bd;
      }
    </style>
  </defs>
  <g id="Layer_2-2" data-name="Layer 2">
    <g>
      <path class="cls-5" d="M188.45.72c-1.43-.11-2.87-.21-4.3-.32,1.47-.46,2.94-.74,4.3.32Z"/>
      <path class="cls-3" d="M180.59,411.49c-.72.07-1.44.14-2.16.21-22.8-2.26-45.03-7.08-66.09-16.21-41.22-17.88-75.01-44.29-94.99-85.65C.45,274.86-3.64,238.09,3.07,199.89c2.02-11.48,6.35-22.04,10.74-32.62,9.4-22.61,23.04-42.5,40.99-59.09,33.21-30.69,71.91-49.38,117.7-51.66,3.64-.18,7.29-.14,10.93-.2,22.62.61,44.78,3.66,65.89,12.4,38.68,16.02,69.35,41.14,90.47,77.77,10.54,18.28,18.43,37.31,22,58.11,6.36,37.08,1.31,72.64-14.68,106.58-8.78,18.64-20.36,35.45-35.59,49.48-14,12.89-29.65,23.12-46.95,31.42-18.07,8.67-36.94,13.77-56.4,17.22-7.81,1.38-15.81,2.2-23.82,2.11-1.27-.81-2.53-.96-3.76.08ZM185.3,393.61c6.02,2.32,12.1.39,18.14.18,1.69-.06,1.2-1.77,1.15-2.8-.22-4.48-.57-8.96-.87-13.44.91-1.35.71-2.64-.19-3.9-.2-2.32-.49-4.64-.59-6.97-.87-19.83.01-39.35,10.5-57.08,1.37-2.32.51-6.48,3.15-7.02,2.61-.54,5.71,1.28,8.58,2.12,20.97,6.1,40.13,3.98,56.31-12.18,1.6-1.6,3.27-3.09,5.98-3.08,8.8.03,9.34-.41,12.64-8.65,7.15-17.84,9.13-36.77,10.29-55.63,1.05-17.05-.58-17.98-17-23.7-10.51-3.66-21.01-7.43-30.85-12.72-1.81-.97-4.37-1.57-4.33-4.28.06-4.21-.26-8.48.8-13.02,5.59,4.48,11.05,8.19,18.36,8.74.3-4.74-1.56-9.15-2-13.73-1.54-15.97-3.21-31.92-4.77-47.89-.29-2.98-.66-5.33-4.52-5.88-13.67-1.95-26.93-5.79-40.12-9.75-3.68-1.1-7.11-1.36-10.7-.17-21.47,7.07-43.52,4.99-65.43,3.6-3.49-.22-7.14-.36-10.69-.83-8.19-1.09-16.37-2.26-24.59-3.14-5.92-.63-10.74,1.58-15.13,5.75-9.05,8.6-18.35,16.98-28.8,23.91-10.04,6.66-20.2,13.15-30.33,19.69-2.02,1.3-3.58,2.71-4.02,5.34-2.02,12.17-1.56,24.28,4.55,35.03,12.12,21.32,25.77,41.73,42.43,59.83,9.82,10.67,10.34,10.66,22.6,2.8,18.92-12.15,30.8-29.18,33.16-51.9,1.05-10.1-.94-20.21-1.71-30.29-.42-5.49.64-10.57,2.8-15.52,9.2-21.11,35.62-33.5,61.26-28.99,7.67,1.35,13.34,5.79,18.88,10.02,9.04,6.91,16.87,15.3,17.42,27.84.32,7.32.71,14.64.82,21.97.11,6.87,2.71,11.77,9.48,14.24,5.15,1.88,10.06,4.42,15.24,6.22,4.19,1.46,7.43,2.68,4.16,8-1.31,2.13-.86,4.86-.43,7.36,1.66,9.57,7.67,16.08,16.06,19.66,5,2.14,4.82,4.79,3.98,8.73-3.59,16.93-16.07,26.12-30.07,33.43-9.51,4.96-19.65,3.54-29.72.22-14.05-4.63-27.6-9.93-37.43-21.69-6.62-7.93-6.21-15.03,1.49-21.19,2.77-2.22,1.83-3.47-.33-4.81-7.87-4.88-19.03-1.76-23.16,6.56-2.49,5.02-2.26,10.43-.65,15.52,2.74,8.65,6.17,17.03,13.96,22.67.9.65,2.07,1.62,1.78,2.81-.46,1.82-2.2.85-3.39,1.02-.64.09-1.32-.08-1.99-.14-3.79-6.16-9.18-9.88-16.42-10.81-3.17-.41-5.83.4-7.75,3.08-9.99-5.06-15.64-14.36-22.12-23.16-2.62,4.4-6.14,7.38-10.06,9.91-2.41,1.55-2.91,3.18-1.15,5.72,2.34,3.37,4.32,7,6.46,10.51-.84,1.82-1.85,3.66-1.48,5.7,1.73,9.46,2.72,19.26,6.96,27.93,7.19,14.7,12.32,30.15,17.95,45.43,3.23,8.76,5.7,17.73,5.53,27.21-.03,1.74.15,3.29,2.34,3.78,9.1,2.04,18.28,2.89,27.58,1.83ZM284.48,108.84c0,1.89-.11,2.9.02,3.87,1.78,13.17,2.65,26.41,3.19,39.68.26,6.3.53,12.73,2.94,18.57,3.48,8.4,6.41,16.78,16.56,20.84,13.23,5.29,18.69,16.92,19.12,30.81.46,14.73-1.72,29.29-4.52,43.63-2.51,12.83-7.06,25.19-18.37,33.34-8.23,5.93-16.64,11.67-25.61,16.45-10.47,5.58-21.63,8.6-33.62,7.75-4.48-.32-8.95-.8-13.43-1.18-6.98-.59-7.29-.41-8.78,6.25-4.27,19.08-4.54,38.28-1.7,57.59.32,2.2.6,3.17,3.32,2.54,23.74-5.44,45.65-15.16,64.46-30.48,38.76-31.57,57.15-73.48,59.53-122.87.55-11.33-.5-22.66-3.02-33.66-8.69-37.92-29.17-68.4-60.09-93.12ZM22.57,188.15c-.15.18-.48.41-.54.69-.84,3.9-1.72,7.79-2.43,11.71-6.11,33.45-2.54,65.94,9.75,97.55.44,1.14.44,2.93,2.09,3.04,1.28.09,1.81-1.35,2.42-2.27,9.2-13.96,16.49-28.7,20.92-45.02,2.43-8.94-.12-15.24-5.29-21.9-10.09-13-20.49-25.88-25.17-42.14-.23-.8-.63-1.51-1.75-1.65ZM113.95,87.26c2.38.46,4.73,1.06,7.13,1.34,4.79.57,9.61.93,14.41,1.43,27.55,2.88,55.07,4.66,82.47-1.46,3.28-.73,6.64-.88,9.86.33,11.25,4.22,23.03,6.48,34.62,9.47,1.24.32,3.03,1.98,3.98.11,1.02-2.03-1.17-2.89-2.49-3.66-8.65-5.02-17.64-9.45-27.05-12.78-31.98-11.31-64.47-12.61-97.3-4.05-8.64,2.25-17.59,3.66-25.62,9.28ZM71.15,250.74c-.64,1.46-1.06,2.16-1.26,2.92-5.43,21.04-15.42,39.92-27.61,57.71-2.05,2.99-2.29,5.55-.35,8.66,2.02,3.24,3.66,6.71,5.38,10.13,2.38,4.74,2.72,4.81,5.97.38,12.75-17.32,22.5-36.23,30.41-56.2,1.54-3.9.63-6.3-1.82-8.77-4.21-4.24-8.63-8.3-10.71-14.83ZM209.39,186.64c.24-10.81-6.28-19.21-14.92-19.97-8.85-.78-17.59,6.73-18.77,16.31-.12.99-1.18,3.71,1.04,2.94,2.42-.84,2.37.68,3.19,1.66,2.12,2.54,3.98,5.41,6.46,7.53,5.95,5.08,12.28,3.21,18.66.53,4.68-1.97,3.49-6.22,4.33-8.99Z"/>
      <path class="cls-2" d="M180.59,411.49c1.23-1.03,2.49-.89,3.76-.08-1.25.03-2.51.05-3.76.08Z"/>
      <path class="cls-4" d="M203.72,377.56c.3,4.48.65,8.95.87,13.44.05,1.02.55,2.74-1.15,2.8-6.04.21-12.12,2.14-18.14-.18-.48-3.95-.95-7.91-1.44-11.86-2.44-19.93-3.45-39.78,2.35-59.41,2-6.76,4.89-13.13,8.28-19.54-2.24-.21-3.81.03-5.46.36-12.21,2.43-24.18,2.89-35.88-2.92-9.87-4.91-18.46-11.44-26.75-18.51-2.14-3.52-4.12-7.14-6.46-10.51-1.76-2.53-1.26-4.17,1.15-5.72,3.93-2.53,7.44-5.51,10.06-9.91,6.48,8.8,12.13,18.1,22.12,23.16,7.52,4.24,15.32,7.64,24.17,7.73.66.05,1.34.23,1.99.14,1.19-.17,2.94.8,3.39-1.02.3-1.18-.88-2.16-1.78-2.81-7.79-5.64-11.22-14.02-13.96-22.67-1.61-5.08-1.84-10.5.65-15.52,4.13-8.32,15.28-11.44,23.16-6.56,2.16,1.34,3.1,2.59.33,4.81-7.69,6.16-8.11,13.26-1.49,21.19,9.83,11.76,23.38,17.06,37.43,21.69,10.07,3.32,20.21,4.74,29.72-.22,14-7.3,26.47-16.5,30.07-33.43.84-3.94,1.03-6.59-3.98-8.73-8.39-3.58-14.4-10.09-16.06-19.66-.43-2.5-.88-5.23.43-7.36,3.27-5.32.02-6.54-4.16-8-5.17-1.8-10.09-4.34-15.24-6.22-6.76-2.47-9.37-7.36-9.48-14.24-.12-7.33-.5-14.65-.82-21.97-.55-12.54-8.38-20.93-17.42-27.84-5.54-4.23-11.21-8.67-18.88-10.02-25.64-4.51-52.06,7.89-61.26,28.99-2.16,4.95-3.21,10.04-2.8,15.52.77,10.09,2.76,20.19,1.71,30.29-2.36,22.72-14.24,39.75-33.16,51.9-12.26,7.87-12.77,7.88-22.6-2.8-16.67-18.11-30.31-38.51-42.43-59.83-6.11-10.75-6.57-22.87-4.55-35.03.44-2.64,2-4.04,4.02-5.34,10.13-6.53,20.29-13.02,30.33-19.69,10.44-6.93,19.74-15.31,28.8-23.91,4.39-4.17,9.21-6.38,15.13-5.75,8.21.88,16.4,2.04,24.59,3.14,3.55.47,7.19.61,10.69.83,21.91,1.39,43.96,3.47,65.43-3.6,3.6-1.18,7.02-.93,10.7.17,13.19,3.95,26.45,7.8,40.12,9.75,3.86.55,4.23,2.91,4.52,5.88,1.56,15.97,3.23,31.92,4.77,47.89.44,4.58,2.3,8.99,2,13.73-7.31-.54-12.77-4.26-18.36-8.74-1.06,4.54-.73,8.8-.8,13.02-.04,2.71,2.52,3.3,4.33,4.28,9.84,5.29,20.34,9.06,30.85,12.72,16.42,5.71,18.04,6.65,17,23.7-1.16,18.86-3.14,37.78-10.29,55.63-3.3,8.24-3.85,8.68-12.64,8.65-2.72,0-4.38,1.48-5.98,3.08-16.17,16.16-35.34,18.28-56.31,12.18-2.87-.84-5.98-2.65-8.58-2.12-2.63.54-1.77,4.7-3.15,7.02-10.49,17.73-11.37,37.25-10.5,57.08.1,2.33.39,4.64.59,6.97.06,1.3.13,2.6.19,3.9ZM237.26,125.89v-.37s.07.29.07.29c3.91,5.14,9.13,9.11,12.71,14.59,3.37,5.16,4.89,11.05,7.25,16.7.28-8.98-.72-17.79-2.17-26.56-.18-1.1-.74-1.82-1.87-2-5.33-.88-10.67-1.75-15.99-2.63ZM142.03,123.91c-8.83-.46-16.27-.8-23.71-1.25-3-.18-5.38.8-7.79,2.59-7.66,5.7-14.66,12.21-22.11,18.14-9.09,7.24-18.77,13.78-28.46,20.24-4.76,3.18-5.4,7.13-4.09,12.04.9,3.4,2.45,6.53,4.17,9.58,4.27,7.55,9.18,14.66,14.42,21.56,7.28,9.58,16.08,18.18,19.83,30.08.67,2.13,1.86,2,3.31.96,1.2-.86,2.37-1.78,3.49-2.76,10.52-9.19,17.69-19.98,17.4-34.68-.2-10.46-1.75-20.86-1.15-31.37.61-10.69,3.8-20.32,10.14-28.97,4.03-5.5,9.14-10.05,14.54-16.17Z"/>
      <path class="cls-1" d="M284.48,108.84c30.92,24.72,51.39,55.21,60.09,93.12,2.52,11,3.57,22.33,3.02,33.66-2.38,49.39-20.77,91.29-59.53,122.87-18.81,15.32-40.72,25.04-64.46,30.48-2.73.62-3-.34-3.32-2.54-2.84-19.31-2.57-38.51,1.7-57.59,1.49-6.65,1.8-6.83,8.78-6.25,4.48.38,8.95.86,13.43,1.18,11.99.85,23.14-2.17,33.62-7.75,8.97-4.78,17.38-10.52,25.61-16.45,11.31-8.15,15.86-20.51,18.37-33.34,2.8-14.34,4.98-28.9,4.52-43.63-.43-13.89-5.9-25.52-19.12-30.81-10.15-4.06-13.08-12.44-16.56-20.84-2.41-5.83-2.68-12.27-2.94-18.57-.54-13.27-1.41-26.51-3.19-39.68-.13-.97-.02-1.98-.02-3.87Z"/>
      <path class="cls-2" d="M126.41,281.72c8.29,7.07,16.89,13.61,26.75,18.51,11.7,5.82,23.67,5.35,35.88,2.92,1.65-.33,3.22-.57,5.46-.36-3.39,6.41-6.28,12.78-8.28,19.54-5.8,19.63-4.79,39.48-2.35,59.41.48,3.95.96,7.91,1.44,11.86-9.3,1.06-18.48.21-27.58-1.83-2.19-.49-2.37-2.04-2.34-3.78.16-9.48-2.3-18.45-5.53-27.21-5.63-15.28-10.76-30.73-17.95-45.43-4.24-8.68-5.23-18.47-6.96-27.93-.37-2.04.64-3.89,1.48-5.7Z"/>
      <path class="cls-1" d="M22.57,188.15c1.12.14,1.52.85,1.75,1.65,4.68,16.26,15.08,29.15,25.17,42.14,5.17,6.66,7.72,12.96,5.29,21.9-4.43,16.32-11.72,31.05-20.92,45.02-.61.93-1.14,2.36-2.42,2.27-1.65-.11-1.65-1.9-2.09-3.04-12.29-31.61-15.85-64.1-9.75-97.55.72-3.92,1.6-7.81,2.43-11.71.06-.28.39-.51.54-.69Z"/>
      <path class="cls-1" d="M113.95,87.26c8.03-5.62,16.98-7.03,25.62-9.28,32.83-8.56,65.32-7.27,97.3,4.05,9.41,3.33,18.4,7.75,27.05,12.78,1.32.77,3.51,1.64,2.49,3.66-.95,1.87-2.73.21-3.98-.11-11.58-2.99-23.37-5.25-34.62-9.47-3.22-1.21-6.58-1.06-9.86-.33-27.39,6.13-54.92,4.34-82.47,1.46-4.8-.5-9.62-.86-14.41-1.43-2.4-.28-4.75-.88-7.13-1.34Z"/>
      <path class="cls-4" d="M71.15,250.74c2.08,6.53,6.5,10.59,10.71,14.83,2.45,2.47,3.37,4.87,1.82,8.77-7.91,19.97-17.66,38.88-30.41,56.2-3.26,4.42-3.59,4.35-5.97-.38-1.72-3.42-3.36-6.89-5.38-10.13-1.94-3.11-1.69-5.68.35-8.66,12.2-17.79,22.18-36.67,27.61-57.71.2-.76.62-1.46,1.26-2.92Z"/>
      <path class="cls-4" d="M209.39,186.64c-.84,2.77.35,7.02-4.33,8.99-6.38,2.68-12.71,4.55-18.66-.53-2.49-2.12-4.34-4.99-6.46-7.53-.82-.98-.77-2.5-3.19-1.66-2.22.77-1.16-1.95-1.04-2.94,1.19-9.58,9.93-17.09,18.77-16.31,8.64.77,15.15,9.16,14.92,19.97Z"/>
      <path class="cls-2" d="M177.46,286.46c-8.85-.09-16.65-3.48-24.17-7.73,1.93-2.68,4.59-3.49,7.75-3.08,7.24.93,12.63,4.65,16.42,10.81Z"/>
      <path class="cls-2" d="M203.72,377.56c-.06-1.3-.13-2.6-.19-3.9.9,1.26,1.11,2.55.19,3.9Z"/>
      <path class="cls-3" d="M142.03,123.91c-5.4,6.13-10.51,10.67-14.54,16.17-6.33,8.65-9.53,18.28-10.14,28.97-.6,10.51.95,20.9,1.15,31.37.28,14.7-6.89,25.49-17.4,34.68-1.11.97-2.28,1.9-3.49,2.76-1.45,1.04-2.64,1.17-3.31-.96-3.75-11.9-12.55-20.5-19.83-30.08-5.24-6.9-10.16-14.01-14.42-21.56-1.73-3.05-3.27-6.18-4.17-9.58-1.3-4.91-.67-8.86,4.09-12.04,9.68-6.46,19.36-13,28.46-20.24,7.45-5.93,14.45-12.44,22.11-18.14,2.42-1.8,4.8-2.78,7.79-2.59,7.44.45,14.88.79,23.71,1.25Z"/>
      <path class="cls-2" d="M237.25,125.91c5.33.87,10.67,1.74,16,2.62,1.13.19,1.69.91,1.87,2,1.45,8.78,2.45,17.59,2.17,26.56-2.36-5.65-3.87-11.54-7.25-16.7-3.58-5.47-8.8-9.44-12.71-14.59l-.08.1Z"/>
      <path class="cls-2" d="M237.33,125.81l-.06-.29s-.01.37-.02.38c0,0,.07-.09.07-.09Z"/>
    </g>
  </g>
</svg>