<?xml version="1.0" encoding="UTF-8"?>
<svg id="Layer_2" data-name="Layer 2" xmlns="http://www.w3.org/2000/svg" viewBox="0 0 289.26 286.77">
  <defs>
    <style>
      .cls-1 {
        fill: #c0d1b5;
      }

      .cls-1, .cls-2, .cls-3, .cls-4, .cls-5, .cls-6 {
        stroke-width: 0px;
      }

      .cls-2 {
        fill: #f9f5e0;
      }

      .cls-3 {
        fill: #f89333;
      }

      .cls-4 {
        fill: #c2d4b8;
      }

      .cls-5 {
        fill: #06293f;
      }

      .cls-6 {
        fill: #32bab1;
      }
    </style>
  </defs>
  <g id="Layer_1-2" data-name="Layer 1">
    <g>
      <path class="cls-5" d="M271.75,24.13c3.41,1.98,6.86,3.89,10.22,5.96,7.2,4.43,8.65,8.02,6.15,16.19-1.35,4.41-3.12,8.69-4.87,12.97-3.68,9.01-7.57,17.94-10.52,27.25-1.4,4.4-3.17,8.68-5.53,12.68-8.61,14.6-17.77,17.74-33.85,11.4-1.32,2.61-.89,5.45-.91,8.16-.28,27.58-.77,55.19.54,82.74.55,11.62-4.32,19.14-13.45,25.01-12.08,7.77-25.44,12.45-39.17,16.16-2.75.74-3.63,1.11-3.02,4.33,1.45,7.72,1.26,15.32-3.13,22.47-13.78,22.46-35.61,21.45-52.29,6.32-1.34-1.21-2.53-2.58-3.79-3.87-1.35-2.65-2.71-5.3-4.06-7.95-1.36-5.32-2.05-10.69-1.03-16.15.59-3.15-.64-4.18-3.74-4.81-16.02-3.25-30.78-9.46-43.81-19.5-6.92-5.86-8.29-13.46-8.17-22.2.34-25.39.04-50.8,0-76.2.11-3.12.1-6.26.37-9.37.33-3.93-.74-4.72-4.62-3.22-9,3.47-17.88,3.38-25.5-3.45-5.35-4.8-9.05-11.32-10.99-17.77-3.58-11.85-8.45-23.17-12.55-34.79-1.81-5.14-3.93-10.15-4-15.71,1.96-9.25,10.05-11.69,17.04-15.36.86-.44,1.72-.87,2.58-1.31,5.79-2.31,11.66-4.44,17.35-6.97,13.55-6.04,27.75-10.33,41.57-15.62,2.6-.51,5.21-1.02,7.81-1.53,3.97.02,7.95.03,11.92.05,4.61,1.19,9.69,1.62,13.52,4.42,8.48,6.19,18.13,6.24,27.83,6.37,6.91.09,13.83-.19,20.75-.19,7.17,0,13.55-2.22,19.22-6.55,1.99-.72,3.98-1.44,5.96-2.15.57-.21,1.13-.42,1.7-.63,0,0,.13.18.13.18,2.23-.38,4.58-.13,6.65-1.32,3.59.28,7.18.6,10.76,0,2.38,1.27,5.02,1.26,7.6,1.55.21.25.45.29.73.13,3.98,1.18,7.96,2.37,11.93,3.56,2.43,1.3,4.93,2.36,7.68,2.75,1.08.44,2.16.88,3.23,1.32.84.22,1.68.44,2.52.67.84.32,1.68.64,2.52.97,7.28,3.49,14.7,6.63,22.43,8.96,1.22,1.1,2.61,1.84,4.26,2.02,0,0-.02-.03-.02-.03.45.79,1.19,1.02,2.03,1.07.67.33,1.34.66,2.02.98ZM148.75,245.18c-1.83.15-3.67.31-5.5.46-1.54-2.25-.81-4.8-.93-7.23-.2-4.12-1.61-5.13-5.1-2.95-4.87,3.04-8.75,7.03-9.77,13.05-1.43,5.19-.77,10.08,2.09,14.66,1.01,2.23,2.24,4.28,4.36,5.66,4.73,4.32,10.5,5.38,16.46,4.27,7.22-1.35,12.14-5.62,13.53-13.25,1.59-8.75-.35-16.37-7.1-22.44-1.42-1.28-3.36-1.9-5.08-1.16-2.21.94-.27,2.87-.48,4.35-.11.81-.06,1.65-.07,2.46-.8.71-1.6,1.42-2.4,2.12ZM130.07,200.35c-.94-.25-1.87-.59-2.82-.74-15.71-2.5-30.43-7.62-44.13-15.85-4.78-2.87-7.99-7.32-12.85-11.56.51,6.61.94,12.14,1.36,17.68-.97,4.07.03,8.25-.56,12.29-1.04,7.11,2.48,11.58,7.99,15.08,10.55,6.7,22.01,10.98,34.3,13.3,5.05.95,9.32.85,12.94-3.43,1.2-1.41,3.25-2.21,5.04-3,8.44-3.7,8.46-3.67,8.2-13.07-.01-.49-.11-.98-.18-1.45q.98-8.81-7.83-9.3c-.48-.03-.97.03-1.46.05ZM163.62,185.39c9.22-1.55,17.92-4.4,25.56-9.99,1.94.07,3.43-1.01,5.02-1.89,7.56-4.21,14.34-9.34,20.27-15.71,2.19-2.35,3.34-4.59,3.38-7.8.22-15.54-.29-31.07-1-46.59-.14-3.08-1.33-5.69-2.89-8.3-6.1-10.22-11.67-20.69-15.85-31.91-3.57-9.59-6.15-19.55-10.87-28.71-2.71-5.27-6.79-8.34-12.8-8.81-19.15-1.49-38.29-.78-57.45-.26-8.76.24-13.72,4.58-17.21,12.32-9.04,19.99-14.91,41.38-26.56,60.23-1.13,1.83-1.43,4.06-1.46,6.22-.16,15.37-.29,30.74-.44,46.11-.02,1.86.17,3.73,1.39,5.17,7.57,8.88,15.97,16.68,27.39,20.4,20.05,10.67,41.14,14.34,63.51,9.52ZM246.13,99.14c3.61.68,6.35-1.6,7.8-4.89,7.32-16.61,14.57-33.27,19.89-50.68.39-1.27.88-3.13-.96-3.18-5.43-.15-9.36-3.76-13.96-5.72-7.36-3.14-15.04-5.39-22.36-8.56-13.08-5.65-26.27-10.68-40.78-10.81-1.13-.01-2.54-.42-3.23.66-1.05,1.62.93,2.13,1.55,3.14,1.04,1.68,2.24,3.25,3.24,4.95,7.05,12.05,10.87,25.47,15.81,38.39,4.14,10.82,8.78,21.08,16.87,29.71,4.45,4.75,9.54,6.57,16.13,6.98ZM101.88,16.37c-13.01-1.8-24.16.23-35.1,4.67-15.89,6.45-32.22,11.81-47.85,18.97-4.08,1.87-4.69,3.62-3.21,7.39,6.38,16.27,12.58,32.62,18.96,48.89,2.08,5.3,5.51,6.63,10.59,4.11,4.43-2.2,8.58-4.87,12.09-8.51,9.2-9.54,13.9-21.57,18.66-33.53,6.08-15.26,11.11-31.09,25.86-42ZM218.71,171.79c-.37-.27-.75-.54-1.12-.8-2.38,2.63-4.41,5.7-7.18,7.81-16.26,12.35-34.5,20.01-54.93,21.97-3.51.34-5.41.97-4.5,5.24.82,3.84.82,7.87.92,11.82.07,2.86,1.01,4.49,3.97,5.25,4.82,1.25,9.44,3.07,12.36,7.54.78,1.2,1.84,1.09,3.05.72,14.72-4.48,29.74-8.11,42.72-17.1,3.46-2.39,4.91-5.03,4.64-9-.71-10.39-.25-20.77.27-31.15.04-.76-.13-1.53-.21-2.3Z"/>
      <path class="cls-1" d="M187.26,1.32c-.57.21-1.13.42-1.7.63.57-.21,1.13-.42,1.7-.63Z"/>
      <path class="cls-6" d="M100.11,175.87c-11.42-3.73-19.82-11.52-27.39-20.4-1.22-1.43-1.41-3.31-1.39-5.17.14-15.37.27-30.74.44-46.11.02-2.17.32-4.39,1.46-6.22,11.64-18.84,17.52-40.23,26.56-60.23,3.5-7.74,8.45-12.09,17.21-12.32,19.16-.52,38.3-1.23,57.45.26,6.01.47,10.08,3.54,12.8,8.81,4.72,9.16,7.29,19.13,10.87,28.71,4.18,11.22,9.75,21.69,15.85,31.91,1.56,2.61,2.75,5.23,2.89,8.3.71,15.52,1.22,31.04,1,46.59-.05,3.21-1.19,5.44-3.38,7.8-5.92,6.37-12.71,11.5-20.27,15.71-1.59.88-3.08,1.96-5.02,1.89.59-2.7,1.72-5.4,1.66-8.09-.12-5.83.97-12.08-3.95-16.82l-.19-1.48c.08-.12.25-.27.22-.34-.1-.24-.27-.44-.41-.66-3.26-11.12-9.86-20.45-16-30.03-13.46-21-38.86-18.45-51.83-1.79-7.67,9.85-12.24,21.25-16.61,32.74-3.32,8.74-5.4,17.66-1.97,26.94ZM110.18,95.16c4.55.1,9.64-4.82,9.75-9.42.13-5.2-3.67-9.15-8.81-9.17-5.38-.02-9.7,3.95-9.81,9.01-.1,4.64,4.39,9.49,8.87,9.58ZM187.12,85.73c.03-5.16-3.89-9.1-9.1-9.15-5.03-.04-9.25,4.13-9.18,9.06.08,5.31,4.4,9.92,9.19,9.8,4.03-.1,9.06-5.48,9.09-9.71Z"/>
      <path class="cls-2" d="M100.11,175.87c-3.43-9.28-1.36-18.2,1.97-26.94,4.37-11.49,8.94-22.88,16.61-32.74,12.98-16.66,38.37-19.21,51.83,1.79,6.15,9.59,12.74,18.92,16,30.03.06.33.13.67.19,1,.06.49.13.99.19,1.48-2.9,8.41-7.5,16.34-15.76,19.36-5.73,2.1-7.82,5.23-9.61,10.09-1.02,2.76-.61,4.39,2.09,5.45-22.37,4.82-43.46,1.14-63.51-9.52ZM144.48,162.19c2.2,1.91,4.01,3.58,5.92,5.12,6.66,5.39,17.17,4.27,22.25-2.29.95-1.23,1.63-2.51,1.12-4.09-.59-1.86-2.19-1.03-3.36-1.1-2.29-.12-4.59-.09-6.89-.05-4.68.09-11.33-3.63-12.22-7.59-.74-3.32-.56-6.88-.5-10.33.04-2.51,3.06-1.98,4.24-3.58,1.26-1.7,3.16-2.93,4.43-4.62,5.28-7.04,2.16-14.62-6.51-15.33-5.74-.47-11.55-.37-17.32-.12-5.46.24-8.26,3.87-7.7,9.3.53,5.17,3.41,8.8,7.69,11.47,1.09.68,2.51.87,3.15,2.21,2.98,6.13-1.05,16.06-7.37,18.26-4.01,1.4-7.81.12-11.64-.8-1.91-.46-3.96-1.38-5.19,1.06-1.06,2.09-.7,4.18.63,6.07,1.58,2.26,3.83,3.57,6.42,4.37,8.08,2.5,17.37-.7,22.82-7.96Z"/>
      <path class="cls-6" d="M246.13,99.14c-6.59-.41-11.68-2.24-16.13-6.98-8.09-8.63-12.74-18.89-16.87-29.71-4.94-12.92-8.76-26.34-15.81-38.39-1-1.7-2.2-3.28-3.24-4.95-.62-1-2.59-1.51-1.55-3.14.7-1.08,2.1-.67,3.23-.66,14.52.13,27.71,5.16,40.78,10.81,7.32,3.16,15,5.41,22.36,8.56,4.6,1.97,8.53,5.57,13.96,5.72,1.84.05,1.35,1.91.96,3.18-5.32,17.41-12.57,34.06-19.89,50.68-1.45,3.3-4.19,5.58-7.8,4.89Z"/>
      <path class="cls-6" d="M101.88,16.37c-14.75,10.91-19.78,26.73-25.86,42-4.76,11.96-9.46,23.99-18.66,33.53-3.51,3.64-7.66,6.3-12.09,8.51-5.08,2.52-8.51,1.19-10.59-4.11-6.39-16.27-12.58-32.62-18.96-48.89-1.48-3.77-.87-5.52,3.21-7.39,15.64-7.16,31.96-12.52,47.85-18.97,10.94-4.44,22.09-6.47,35.1-4.67Z"/>
      <path class="cls-3" d="M218.71,171.79c.07.77.25,1.54.21,2.3-.53,10.38-.98,20.76-.27,31.15.27,3.96-1.18,6.6-4.64,9-12.98,8.98-28,12.62-42.72,17.1-1.2.37-2.26.48-3.05-.72-2.92-4.47-7.54-6.29-12.36-7.54-2.96-.77-3.9-2.4-3.97-5.25-.09-3.95-.1-7.99-.92-11.82-.91-4.26.99-4.9,4.5-5.24,20.43-1.96,38.66-9.62,54.93-21.97,2.77-2.1,4.81-5.18,7.18-7.81.37.27.75.54,1.12.8Z"/>
      <path class="cls-3" d="M139.36,209.58c.06.49.16.98.18,1.47.26,9.4.24,9.37-8.2,13.07-1.79.79-3.84,1.58-5.04,3-3.62,4.28-7.89,4.38-12.94,3.43-12.29-2.32-23.75-6.6-34.3-13.3-5.51-3.5-9.02-7.97-7.99-15.08.59-4.05-.41-8.22.56-12.29,2.21-.6,3.84.63,5.4,1.83,11.03,8.52,24.05,12.08,37.3,15.05.15,1.57,1.53,1.55,2.55,1.91,7.39,2.65,14.94,1.62,22.48.92ZM102.4,206.89c-3.32.02-4.35,2.63-4.81,5.5-.36,2.26,3.91,6.98,6.3,6.6,3.38-.53,4.62-3.3,4.86-6.5.33-4.36-2.73-5.09-6.36-5.61Z"/>
      <path class="cls-3" d="M151.14,243.07c.02-.82-.04-1.66.08-2.47.21-1.47-1.72-3.4.48-4.35,1.71-.73,3.66-.11,5.08,1.16,6.75,6.07,8.69,13.7,7.1,22.44-1.39,7.63-6.3,11.89-13.53,13.25-5.95,1.11-11.72.05-16.46-4.27.06-3.9.11-7.8.17-11.7.77-1.77,1.85-3.09,4.02-2.92,2.35,3.3,5.76,1.82,8.45,1.28,5.21-1.04,7.96-9.13,4.61-12.44Z"/>
      <path class="cls-2" d="M114.34,206.75c-13.26-2.97-26.28-6.52-37.3-15.05-1.56-1.2-3.19-2.43-5.4-1.83-.43-5.53-.85-11.07-1.36-17.67,4.86,4.24,8.07,8.69,12.85,11.56,13.7,8.23,28.42,13.34,44.13,15.85.96.15,1.88.49,2.82.74-4.84,3.14-10.31,4.7-15.74,6.4Z"/>
      <path class="cls-4" d="M163.62,185.39c-2.7-1.05-3.1-2.69-2.09-5.45,1.79-4.85,3.87-7.99,9.61-10.09,8.26-3.02,12.86-10.95,15.76-19.36,4.92,4.74,3.83,10.99,3.95,16.82.05,2.68-1.07,5.39-1.66,8.09-7.64,5.59-16.35,8.44-25.56,9.99Z"/>
      <path class="cls-2" d="M127.45,248.51c1.02-6.02,4.9-10.01,9.77-13.05,3.49-2.18,4.9-1.18,5.1,2.95.12,2.43-.62,4.98.93,7.23-1.65.56-1.68,2.27-2.49,3.42-2.35,3.33-6.13,4.45-9.85,4.67-3.18.18-2.32-3.43-3.45-5.22Z"/>
      <path class="cls-1" d="M114.34,206.75c5.42-1.7,10.9-3.26,15.74-6.4.49-.02.98-.08,1.46-.05q8.8.49,7.83,9.29c-7.53.7-15.09,1.73-22.48-.93-1.01-.36-2.4-.35-2.55-1.91Z"/>
      <path class="cls-4" d="M127.45,248.51c1.14,1.79.28,5.4,3.45,5.22,3.72-.21,7.5-1.33,9.85-4.67.81-1.15.84-2.86,2.49-3.42,1.83-.15,3.67-.31,5.5-.46-1.03,5.99-5.16,8.33-10.66,9.04-2.17-.18-3.26,1.15-4.02,2.91-3.25.7-2.41,4.48-4.53,6.04-2.86-4.58-3.52-9.47-2.09-14.66Z"/>
      <path class="cls-1" d="M138.09,254.23c5.51-.71,9.63-3.05,10.66-9.04.8-.71,1.6-1.42,2.4-2.12,3.35,3.31.6,11.41-4.61,12.44-2.69.54-6.1,2.02-8.45-1.28Z"/>
      <path class="cls-1" d="M129.54,263.18c2.12-1.56,1.28-5.34,4.53-6.04-.06,3.9-.12,7.8-.17,11.7-2.11-1.38-3.35-3.43-4.36-5.66Z"/>
      <path class="cls-5" d="M110.18,95.16c-4.49-.1-8.97-4.94-8.87-9.58.11-5.07,4.43-9.04,9.81-9.01,5.14.02,8.94,3.98,8.81,9.17-.11,4.61-5.2,9.52-9.75,9.42Z"/>
      <path class="cls-5" d="M187.12,85.73c-.03,4.23-5.06,9.61-9.09,9.71-4.79.12-9.11-4.49-9.19-9.8-.07-4.93,4.15-9.1,9.18-9.06,5.21.04,9.13,3.98,9.1,9.15Z"/>
      <path class="cls-4" d="M186.72,149.01c-.06-.33-.13-.67-.19-1,.14.22.31.42.41.66.03.07-.14.23-.22.34Z"/>
      <path class="cls-5" d="M144.48,162.19c-5.45,7.26-14.75,10.45-22.82,7.96-2.59-.8-4.84-2.1-6.42-4.37-1.32-1.89-1.69-3.98-.63-6.07,1.23-2.43,3.28-1.52,5.19-1.06,3.83.93,7.63,2.2,11.64.8,6.32-2.2,10.35-12.13,7.37-18.26-.65-1.34-2.07-1.53-3.15-2.21-4.27-2.68-7.15-6.31-7.69-11.47-.56-5.43,2.24-9.05,7.7-9.3,5.76-.26,11.58-.36,17.32.12,8.67.71,11.79,8.29,6.51,15.33-1.27,1.7-3.18,2.92-4.43,4.62-1.18,1.6-4.2,1.06-4.24,3.58-.06,3.45-.24,7.01.5,10.33.89,3.96,7.53,7.68,12.22,7.59,2.3-.04,4.6-.07,6.89.05,1.17.06,2.77-.77,3.36,1.1.5,1.58-.17,2.86-1.12,4.09-5.08,6.56-15.59,7.67-22.25,2.29-1.91-1.54-3.72-3.21-5.92-5.12Z"/>
      <path class="cls-5" d="M102.4,206.89c3.62.52,6.69,1.25,6.36,5.61-.24,3.2-1.49,5.97-4.86,6.5-2.39.37-6.67-4.34-6.3-6.6.46-2.87,1.49-5.49,4.81-5.5Z"/>
    </g>
  </g>
</svg>