<?xml version="1.0" encoding="UTF-8"?>
<svg id="Layer_2" data-name="Layer 2" xmlns="http://www.w3.org/2000/svg" viewBox="0 0 307.89 297.01">
  <defs>
    <style>
      .cls-1 {
        fill: #c0d1b5;
      }

      .cls-1, .cls-2, .cls-3, .cls-4, .cls-5, .cls-6 {
        stroke-width: 0px;
      }

      .cls-2 {
        fill: #f9f5e0;
      }

      .cls-3 {
        fill: #f89333;
      }

      .cls-4 {
        fill: #c2d4b8;
      }

      .cls-5 {
        fill: #06293f;
      }

      .cls-6 {
        fill: #32bab1;
      }
    </style>
  </defs>
  <g id="Layer_1-2" data-name="Layer 1">
    <g>
      <path class="cls-5" d="M107.92,2.46c11.57-.8,23.04-.59,34.44,2.16,37.14,8.96,65.75,29.27,82.56,63.94,8.03,16.57,12.42,34.56,12.09,53.32-.73,7.59-1.46,15.18-2.19,22.77-2.63,11.08-6.72,21.59-12.15,31.61-3.9,7.18-3.81,7.22,1.76,13.03.97,2.79,3.6,4.23,5.28,6.44.64.85,1.76,1.18,2.62.38,4.9-4.54,8.2-.8,11.15,2.42,16.75,18.27,35.86,34.11,53.2,51.76,0,0,.14.22.14.22.81,1.43,1.63,2.86,2.44,4.29,2.89,11.96,1.68,22.83-7.48,32.12-11.69,11.85-30.04,13.58-43.22,3.39-9.08-7.02-17.53-14.75-25.75-22.82-6.58-6.45-12.94-13.23-20.29-18.96-4.92-3.84-10.13-8.06-9.16-15.62.11-.85-.22-1.56-.89-2.18-3.1-2.9-6.24-5.77-9.22-8.79-1.57-1.59-2.68-.98-4.26,0-29.66,18.37-61.09,22.62-94.5,12.04-19.54-6.19-35.97-17.11-50.24-31.58-1.48-1.5-3.18-2.79-4.77-4.18.11-1.69-1.09-2.56-2.18-3.49l-.05-.11c-2.06-2.86-4.13-5.73-6.19-8.59,0,0-.03,0-.03,0-.74-1.09-1.48-2.17-2.22-3.26,0-.67-.2-1.23-.89-1.49-9.26-15.85-15.63-32.64-17.39-51.07-2.23-23.22,2.99-44.83,13.4-65.46,6.59-13.06,16.02-23.84,26.65-33.58,5.88-5.39,12.71-9.68,19.8-13.45,1.69-.9,3.28-2.01,4.91-3.03,5.75-2.26,11.5-4.52,17.24-6.78.22.16.42.14.6-.06.99.23,1.8,0,2.33-.94.55-.08,1.1-.16,1.65-.23,5.63-1.27,11.25-2.55,16.88-3.82,1.32-.13,2.64-.27,3.95-.4ZM285.54,264.18c.65-5.15-2.71-8.22-5.96-11.26-12.99-12.16-25.8-24.51-38.03-37.43-5.16-5.45-5.03-5.62-10.3-.08-1.7,1.78-3.27,3.68-4.9,5.53-6.23,3.91-9.68,10.68-15.47,15.07-1.84,1.4-.25,2.5.9,3.48,3.37,2.9,6.75,5.79,10.07,8.75,11.44,10.19,22.76,20.52,34.32,30.56,6.16,5.35,15.37,6.16,21.69,2.49,6.02-3.5,8.93-9.98,7.68-17.11ZM12.52,119.62c-.76,51.66,44.4,107.66,105.95,107.66,59.18,0,104.37-48.41,105.65-106.3,1.29-58.34-46.69-104.75-101.63-106.1C62.11,13.39,11.84,58.95,12.52,119.62ZM212.25,193.47c-.52.44-.9.71-1.22,1.04-6.22,6.37-12.43,12.75-18.66,19.12-1.7,1.74-1.51,3.07.66,4.24,2.35,1.27,4.43,2.99,5.91,5.19,1.87,2.77,3.63,2.15,5.57.29,3.93-3.78,7.9-7.51,11.73-11.38,6.93-7,6.89-7.03.07-14.19-.91-.95-1.74-1.99-2.63-2.96-.42-.46-.9-.85-1.43-1.35Z"/>
      <path class="cls-6" d="M280.52,163.69c-8.15,2.46-10.47.82-11.27-8.09-.34-3.77-.7-7.56-.75-11.34-.05-3.1-1.19-4.53-4.41-4.42-3.62.12-7.27.08-10.88-.15-4.83-.31-7.78-3.56-7.53-7.99.25-4.29,2.4-5.99,7.8-6.06,3.13-.04,6.28-.18,9.4,0,4.51.25,6.29-2.04,6.34-6.22.05-3.96.12-7.92.19-11.88.07-4.05,2.07-6.67,6.1-7.11,4.24-.46,7.11,1.58,7.55,5.93.43,4.25.72,8.57.43,12.82-.3,4.46,1.51,5.9,5.67,5.79,3.45-.09,6.91.37,10.37.43,7.37.12,9.54,2.96,7.79,10.37,0,0-.03.03-.03.03-.26.32-.52.64-.78.96,0,0-.2.25-.2.24-.36.05-.55.25-.57.6-.16.33-.32.66-.48.99-5.22,2.13-10.71,1.1-16.08,1.23-3.03.08-4.25,1.07-4.84,4.12-1.11,5.83.01,11.86-1.78,17.59-.68.72-1.36,1.44-2.03,2.17Z"/>
      <path class="cls-3" d="M251.7,58.84c-.14-.48-.27-.97-.41-1.45-.29-4.93-.5-9.87-.9-14.79-.28-3.5-2.11-5.44-5.87-5.02-2.95.33-5.89.72-8.85.92-5.36.36-9.64-2.72-9.76-6.89-.12-4.29,3.75-7.72,8.99-7.89,2.31-.07,4.63-.15,6.93,0,4.92.32,6.78-2.28,7.03-6.81.18-3.27.6-6.53.99-9.78.6-4.88,3.14-7.31,7.56-7.11,4.54.21,6.01,3.05,6.28,7.22.24,3.71,1.25,7.38,1.45,11.09.21,3.91,2.33,5.61,5.82,5.87,3.28.25,6.6.1,9.9.14,4.99.06,7.83,2.3,7.82,6.16,0,3.82-3.75,7.92-7.76,8.14-3.62.2-7.26.17-10.89.05-2.84-.1-4.24.95-4.45,3.89-.3,4.27-.93,8.51-1.31,12.78-.33,3.77-1.81,6.89-5.57,7.94-3.63,1.02-4.96-2.5-7.02-4.47Z"/>
      <path class="cls-4" d="M305.74,137.59c.02-.35.21-.55.57-.6-.17.22-.36.42-.57.6Z"/>
      <path class="cls-4" d="M306.51,136.75c.26-.32.52-.64.78-.96-.26.32-.52.64-.78.96Z"/>
      <path class="cls-6" d="M12.52,119.62C11.84,58.95,62.11,13.39,122.48,14.88c54.94,1.36,102.92,47.76,101.63,106.1-1.28,57.89-46.47,106.3-105.65,106.3-61.54,0-106.71-56.01-105.95-107.66ZM160.39,33.67l.03.04c-.27-2.16-1.68-4.34-3.44-4.29-7.69.2-14.52-3.5-21.94-4.34-1.19-.13-1.88.2-2.13,1.37-.87-.17-1.75-.33-2.62-.5.15-.81.23-1.69-.83-1.85-1.02-.15-1.36.54-1.26,1.48-1.15.04-2.31.16-3.46.1-27.12-1.46-51.06,6.63-70.71,25.34-17.4,16.57-29.06,36.21-30.61,61.23-2.03,32.71,9.87,59.27,33.99,80.43,28.25,24.78,60.43,31.2,95.78,17.4,17.56-6.86,30.56-19.43,41.91-34.41,22.35-29.52,25.05-71.33,6.01-103.05-9.25-15.41-21.76-27.28-37.13-36.34.46-3.16-1.88-2.45-3.6-2.62Z"/>
      <path class="cls-3" d="M285.54,264.18c1.25,7.13-1.66,13.62-7.68,17.11-6.32,3.67-15.53,2.86-21.69-2.49-11.56-10.05-22.88-20.38-34.32-30.56-3.32-2.96-6.7-5.85-10.07-8.75-1.15-.99-2.74-2.08-.9-3.48,5.79-4.39,9.23-11.16,15.47-15.07,4.56,1.53,8.71,3.8,12.15,7.16,12.21,11.94,24.98,23.25,38.09,34.21,2.83,2.37,5.53,3.29,8.94,1.87Z"/>
      <path class="cls-2" d="M285.54,264.18c-3.41,1.41-6.11.5-8.94-1.87-13.11-10.95-25.87-22.26-38.09-34.21-3.45-3.37-7.6-5.63-12.15-7.16,1.63-1.85,3.2-3.75,4.9-5.53,5.27-5.54,5.14-5.37,10.3.08,12.23,12.92,25.04,25.27,38.03,37.43,3.25,3.04,6.61,6.11,5.96,11.26Z"/>
      <path class="cls-6" d="M212.25,193.47c.53.49,1.01.89,1.43,1.35.89.97,1.72,2,2.63,2.96,6.82,7.16,6.86,7.19-.07,14.19-3.83,3.87-7.81,7.6-11.73,11.38-1.93,1.86-3.7,2.48-5.57-.29-1.48-2.2-3.56-3.91-5.91-5.19-2.17-1.17-2.36-2.5-.66-4.24,6.23-6.37,12.43-12.75,18.66-19.12.32-.33.71-.6,1.22-1.04Z"/>
      <path class="cls-5" d="M130.29,25.95c.87.17,1.75.33,2.62.5,9.42,1.47,18.36,4.75,27.51,7.26,0,0-.03-.04-.03-.04.6,1.69,2.51,1.59,3.6,2.62,15.37,9.06,27.87,20.92,37.13,36.34,19.04,31.72,16.34,73.53-6.01,103.05-11.34,14.98-24.34,27.55-41.91,34.41-35.35,13.8-67.53,7.38-95.78-17.4-24.12-21.16-36.03-47.72-33.99-80.43,1.56-25.02,13.21-44.67,30.61-61.23,19.65-18.71,43.59-26.8,70.71-25.34,1.15.06,2.31-.06,3.45-.1.69.12,1.39.25,2.09.37ZM54.22,67.16s0,0,0,0c-.29.36-.58.72-.87,1.08l-.02.03c-4.06,4.44-7.33,9.42-10.06,14.76-1.1.61-.5,1.82-.9,2.61-7.99,15.83-9.3,32.68-6.14,49.66,4.43,23.79,17.99,42.16,37.48,55.86,12.73,8.95,27.3,14.98,42.96,14.77,31.33-.43,55.61-14.12,73.22-40.61,19.07-28.69,16.26-72.22-1.87-94.15-13.58-16.44-30.09-27.94-50.95-32.94-2-1.17-4.23-1.2-6.45-1.26-.95-.09-1.9-.18-2.86-.28-4.63-.69-9.27-.67-13.9-.04l-2.92.16c-6.41.29-12.61,1.56-18.52,4.11-.24-.06-.41.03-.5.26-.78.31-1.55.62-2.33.93-.49.19-.98.38-1.48.58-4.3,1.22-8.46,2.75-11.99,5.63l-.07.05c-2.27.83-4.2,2.18-5.81,3.98l-.09.06c-1.99.86-3.68,2.09-4.95,3.88-.37.29-.74.59-1.11.88-3.61,2.34-6.72,5.19-8.94,8.93v.02c-.33.34-.65.68-.96,1.02Z"/>
      <path class="cls-1" d="M160.42,33.71c-9.15-2.51-18.09-5.79-27.51-7.26.25-1.18.94-1.51,2.13-1.37,7.42.84,14.25,4.54,21.94,4.34,1.76-.05,3.17,2.13,3.44,4.29Z"/>
      <path class="cls-1" d="M130.29,25.95c-.7-.12-1.4-.25-2.09-.37-.09-.94.24-1.63,1.26-1.48,1.06.16.98,1.04.83,1.85Z"/>
      <path class="cls-1" d="M163.99,36.28c-1.09-1.03-3-.92-3.6-2.62,1.71.16,4.06-.54,3.6,2.62Z"/>
      <path class="cls-2" d="M91.93,41.2c.09-.23.26-.32.5-.26,6.29-.84,12.56-1.78,18.52-4.11.97-.05,1.95-.11,2.92-.16,4.63,1.1,9.27.96,13.9.04.95.09,1.9.18,2.86.28,1.82,2.12,4.21,1.28,6.45,1.26,20.85,4.99,37.37,16.5,50.95,32.94,18.12,21.94,20.93,65.46,1.87,94.15-17.6,26.49-41.88,40.17-73.22,40.61-15.66.22-30.23-5.82-42.96-14.77-19.5-13.71-33.06-32.08-37.48-55.86-3.16-16.98-1.86-33.84,6.14-49.66.4-.79-.21-2,.9-2.61,1.41.58,3.31,1.24,3.73-.68,1.14-5.18,5.97-8.62,6.33-14.08,0,0,.02-.03.02-.03.29-.36.58-.72.87-1.08,0,0,0,0,0,0,.32-.34.63-.68.95-1.02,0,0,.01-.02.01-.02,4.38-1.58,7.37-4.54,8.94-8.93.37-.29.74-.59,1.11-.88,2.7.05,4.32-1.28,4.95-3.88,0,0,.09-.06.09-.06,2.6-.37,5.12-.84,5.81-3.98,0,0,.07-.05.07-.05,4.38-1.07,8.65-2.36,11.99-5.63.49-.19.98-.38,1.48-.58,1,.25,1.79-.02,2.33-.93ZM120.19,113.94c-6.77-.24-12.78,1.75-17.48,6.66-6.95,7.26-13.72,14.7-20.5,22.12-8.6,9.41-9.39,21.37-2.13,30.6,7.52,9.55,18.82,11.83,29.99,4.64,6.85-4.41,12.59-4.61,18.95-.13.67.47,1.41.87,2.14,1.24,11.49,5.83,24,2.04,30.12-9.28,4.62-8.54,4.13-16.97-2.04-24.5-6.47-7.91-13.27-15.57-20.22-23.07-4.99-5.38-11.18-8.66-18.83-8.29ZM158.72,81.03c-.03-11.14-4.79-18.01-12.55-20.14-6.82-1.87-14.97,1.91-18.86,9.54-4.43,8.69-4.66,17.88-.58,26.75,3.28,7.14,11.03,9.54,18,5.81,9.51-5.09,13.4-13.64,13.99-21.96ZM115.34,84.79c-.09-5.92-1.23-11.59-4.55-16.53-5.53-8.24-16.53-10.43-22.51-4.96-10.73,9.82-9.56,27.39,1.81,36.77,9.61,7.92,22.15,3.43,24.6-8.87.42-2.09.44-4.27.64-6.41ZM51.58,111.61c.09,12.8,8.88,22.8,19.93,22.67,8.39-.1,15.73-7.83,15.68-16.52-.06-11.03-10.14-21.82-20.23-21.67-9.54.15-15.46,6.11-15.39,15.52ZM187.21,111.79c.27-9.92-8.58-17.35-17.82-15.35-8.58,1.86-13.62,7.71-16.06,15.73-2.49,8.19.84,17.51,6.75,20.41,7.58,3.72,16.66,1.03,22.28-6.56,3.27-4.41,4.6-9.43,4.85-14.24Z"/>
      <path class="cls-4" d="M53.33,68.28c-.37,5.46-5.19,8.9-6.33,14.08-.42,1.92-2.32,1.26-3.73.68,2.73-5.34,6-10.32,10.06-14.76Z"/>
      <path class="cls-4" d="M110.95,36.83c-5.96,2.33-12.23,3.27-18.52,4.11,5.91-2.55,12.11-3.82,18.52-4.11Z"/>
      <path class="cls-4" d="M64.12,57.19c-1.56,4.39-4.56,7.35-8.94,8.93,2.22-3.74,5.32-6.59,8.94-8.93Z"/>
      <path class="cls-4" d="M88.13,42.71c-3.34,3.28-7.61,4.57-11.99,5.63,3.52-2.88,7.68-4.41,11.99-5.63Z"/>
      <path class="cls-4" d="M127.77,36.71c-4.64.92-9.27,1.06-13.9-.04,4.64-.63,9.27-.65,13.9.04Z"/>
      <path class="cls-4" d="M76.07,48.39c-.69,3.15-3.21,3.62-5.81,3.98,1.61-1.81,3.53-3.15,5.81-3.98Z"/>
      <path class="cls-4" d="M70.17,52.44c-.63,2.59-2.24,3.93-4.95,3.88,1.26-1.79,2.96-3.02,4.95-3.88Z"/>
      <path class="cls-4" d="M137.08,38.24c-2.23.02-4.63.86-6.45-1.26,2.22.06,4.44.09,6.45,1.26Z"/>
      <path class="cls-4" d="M91.93,41.2c-.54.91-1.33,1.18-2.33.93.78-.31,1.55-.62,2.33-.93Z"/>
      <path class="cls-4" d="M54.21,67.17c-.29.36-.58.72-.87,1.08.29-.36.58-.72.87-1.08Z"/>
      <path class="cls-4" d="M55.17,66.14c-.32.34-.63.68-.95,1.02.32-.34.63-.68.95-1.02Z"/>
      <path class="cls-5" d="M120.18,113.94c7.65-.37,13.85,2.91,18.84,8.29,6.95,7.5,13.75,15.16,20.22,23.07,6.17,7.53,6.66,15.96,2.04,24.5-6.12,11.32-18.63,15.1-30.12,9.28-.73-.37-1.47-.77-2.14-1.24-6.36-4.48-12.1-4.28-18.95.13-11.17,7.19-22.47,4.91-29.99-4.64-7.26-9.23-6.47-21.19,2.13-30.6,6.78-7.42,13.55-14.86,20.5-22.12,4.7-4.92,10.71-6.9,17.47-6.66Z"/>
      <path class="cls-5" d="M158.72,81.03c-.59,8.32-4.48,16.87-13.99,21.96-6.97,3.73-14.72,1.33-18-5.81-4.08-8.88-3.86-18.07.58-26.75,3.89-7.63,12.04-11.41,18.86-9.54,7.75,2.13,12.52,9,12.55,20.14Z"/>
      <path class="cls-5" d="M115.34,84.79c-.2,2.14-.22,4.31-.64,6.41-2.45,12.3-14.99,16.79-24.6,8.87-11.38-9.38-12.55-26.94-1.81-36.77,5.97-5.47,16.97-3.28,22.51,4.96,3.32,4.94,4.46,10.61,4.55,16.53Z"/>
      <path class="cls-5" d="M51.58,111.61c-.07-9.4,5.85-15.37,15.39-15.52,10.09-.16,20.16,10.64,20.23,21.67.05,8.69-7.29,16.42-15.68,16.52-11.06.13-19.84-9.87-19.93-22.67Z"/>
      <path class="cls-5" d="M187.21,111.79c-.25,4.81-1.58,9.83-4.85,14.24-5.62,7.59-14.7,10.28-22.28,6.56-5.92-2.91-9.24-12.22-6.75-20.41,2.44-8.03,7.48-13.88,16.06-15.73,9.25-2,18.1,5.42,17.82,15.35Z"/>
    </g>
  </g>
</svg>