<?xml version="1.0" encoding="UTF-8"?>
<svg id="Layer_2" data-name="Layer 2" xmlns="http://www.w3.org/2000/svg" viewBox="0 0 1258.87 337.61">
  <defs>
    <style>
      .cls-1 {
        stroke: #06293f;
        stroke-linejoin: round;
        stroke-width: 5px;
      }

      .cls-1, .cls-2, .cls-3 {
        fill: #06293f;
      }

      .cls-4 {
        fill: #c0d1b5;
      }

      .cls-4, .cls-5, .cls-6, .cls-3, .cls-7, .cls-8 {
        stroke-width: 0px;
      }

      .cls-2 {
        font-family: TCS4MusicBold, 'TCS 4Music Bold';
        font-size: 60.66px;
      }

      .cls-9 {
        stroke: #f89333;
        stroke-linecap: round;
        stroke-miterlimit: 10;
        stroke-width: 2px;
      }

      .cls-9, .cls-5 {
        fill: #f89333;
      }

      .cls-6 {
        fill: #c2d4b8;
      }

      .cls-7 {
        fill: #fff;
      }

      .cls-8 {
        fill: #32bab1;
      }
    </style>
  </defs>
  <g id="Layer_1-2" data-name="Layer 1">
    <g>
      <g>
        <g>
          <circle class="cls-7" cx="109.22" cy="126.81" r="93.04"/>
          <path class="cls-3" d="M344.4,269.1c24.84,24.33,5.05,58.39-20.66,67.38-7.13,2.49-13.54.66-19.71-3.49-15.76-10.6-79.68-67.99-87.9-74.16-6.54-4.91-8.49-10.39-4.71-15.36,4.38-5.76,2.7-8.55-3.26-10.67-2.09-.74-14.41-8.02-17.99-11.32-3.55-3.26-5.27-2.15-7.75,1.17-8.96,12.04-15.62,25.48-23.54,38.14-14.36,22.95-28.29,46.16-42.54,69.18-5.44,8.79-9.6,8.71-15.27.11-4.42-6.71-8.83-13.43-13.24-20.15l-1.76-2.51c-.41-.68-.83-1.35-1.24-2.03-.46-.68-.91-1.36-1.37-2.04-.44-.66-.88-1.31-1.33-1.97-.35-1.49-1.1-2.71-2.45-3.52-1.06-2.69-2.64-5.03-4.72-7.04.06-.49-.15-.8-.63-.92-9.67-15.84-19.31-31.7-29.03-47.5-14.92-24.26-26.78-50.13-38.36-76.01-9.01-20.12-8.31-41.89-3.16-63.32.78-3.23,7.94-22.63,10.89-28.7,16.52-24.36,38.91-40.56,67.3-48.42,4.45-.24,8.81-.93,12.96-2.62,2.03.86,3.98.2,5.94-.28,1.76-.05,3.53-.1,5.3-.15,2.29,0,4.58,0,6.86,0,6.71.87,13.42,1.74,20.13,2.61.88.19,1.76.38,2.64.56,11.5,4.21,23.09,8.25,33.55,14.83.56.4,1.12.8,1.67,1.21.96,1.33,2.11,2.41,3.73,2.86,1.46,1.28,2.91,2.56,4.37,3.84,1.5,2.89,3.8,5.01,6.44,6.82,0,0,.03.03.03.03.9.92,1.79,1.84,2.69,2.75,24.22,28.96,33.47,61.63,24.41,98.82-.48,1.96-.65,4.22-1.77,5.75-5.62,7.7-2.1,12.75,4.33,17.47,7.77,5.71,15.37,11.65,22.91,17.66,3.76,3,7.51,1.63,10.67-.23,5.08-2.99,8.69-1.32,12.65,2,27.59,23.13,55.27,46.15,82.92,69.21ZM289.66,246.68c-.21-3.06-2.41-4.33-4.85-5.38.65-1.4-.53-1.96-1.27-2.69-8.92-8.83-20.34-14.72-28.58-24.37-2.14-2.5-3.53-.16-4.91,1.09-6.04,5.47-10.56,12.18-14.92,18.96-2.19,3.4-8.21,5.11-6.8,9.57,1.16,3.68,5.34,6.43,8.24,9.54.91.98,2.03,1.76,3.02,2.67,12.84,11.83,26.86,22.28,39.54,34.35,10.33,9.83,21.67,18.61,32.6,27.82,2.16,1.82,4.66,2.8,7.45,1.65,8.16-3.36,14.9-8.68,18.1-16.93,2.39-6.16,2.33-12.79-3.31-17.92-.49-2.91-2.77-4.59-4.71-6.34-8.15-7.35-16.36-14.63-24.7-21.76-4.61-3.94-8.45-9.07-14.92-10.34l.04.07ZM205.12,190.06c-1.28-2.08-2.63-2.95-4.42-.43-2.04,2.87-4.2,5.64-6.25,8.49-2.37,3.29-1.57,5.69,2.14,7.2,6.52,5.07,13.09,10.08,19.54,15.24,2.38,1.9,4.01,2.23,5.88-.71,1.42-2.24,3.45-4.12,5.34-6.03,1.86-1.88,2.59-3.42.04-5.46-7.49-6.01-14.85-12.19-22.27-18.3ZM165.32,217.03c-2.03.93-4.21,1.64-6.07,2.83-13.65,8.75-28.8,11.51-44.64,10.98-20.64-.69-29.66,47.13-6.59,79.27,2.09-3.03,3.75-5.15,5.12-7.45,14.69-24.81,29.84-49.32,45.88-73.3,2.52-3.76,5.71-7.45,6.19-12.34l.35.07-.23-.06ZM199.46,129.56c.27-14.35-3.49-29.12-10.97-42.67-29.22-52.91-99.35-64.95-145.23-20.73-28.94,27.89-32.44,65.19-20.15,95.31,15.13,37.08,67.48,65.53,114.08,49.51,41.48-14.26,63.15-42.35,62.27-81.41Z"/>
          <path class="cls-8" d="M333.95,285.04c5.65,5.12,5.7,11.76,3.31,17.92-3.2,8.25-9.94,13.58-18.1,16.93-2.79,1.15-5.29.17-7.45-1.65-10.92-9.21-22.26-17.99-32.6-27.82-12.68-12.07-26.7-22.52-39.54-34.35-.99-.91-2.11-1.69-3.02-2.67-2.9-3.11-7.08-5.85-8.24-9.54-1.41-4.46,15.68-23.06,21.72-28.53,1.38-1.25,2.77-3.6,4.91-1.09,8.24,9.64,19.66,15.54,28.58,24.37.74.73,1.92,1.28,1.27,2.69.61,2.7,1.05,5.56,4.85,5.38,0,0-.04-.07-.04-.07-1.4,5.47,1.69,8.73,5.53,11.85,8.93,7.25,18.5,13.75,26.27,22.42,2.58,2.88,4.91,4.93,1.73,8.84-1.08,1.33-2.44,3.79.04,5.26,2.11,1.24,4.37.65,6.1-1.15,2.37-2.47,3.58-5.6,4.67-8.77Z"/>
          <path class="cls-9" d="M163.82,218.37c-.45,4.91-55.07,90.07-57.17,93.1-10.76-15.9-21.55-32.37-32.3-49.43-6.94-11-27.92-42.47-26.93-43.55,25.81,19.01,95.07,13.58,116.4-.11Z"/>
          <path class="cls-8" d="M205.12,190.06c7.41,6.11,14.77,12.28,22.27,18.3,2.54,2.04,1.82,3.58-.04,5.46-1.89,1.91-3.91,3.79-5.34,6.03-1.87,2.94-3.5,2.61-5.88.71-6.45-5.16-13.02-10.17-19.54-15.24,4.46-4.19,9.04-8.29,8.53-15.26Z"/>
          <path class="cls-6" d="M333.95,285.04c-1.09,3.17-2.3,6.3-4.67,8.77-1.72,1.8-3.99,2.39-6.1,1.15-2.49-1.47-1.12-3.93-.04-5.26,3.17-3.91.85-5.96-1.73-8.84-7.77-8.67-17.33-15.17-26.27-22.42-3.84-3.12-6.93-6.38-5.53-11.85,6.48,1.27,10.32,6.4,14.92,10.34,8.34,7.13,16.56,14.41,24.7,21.76,1.94,1.75,4.22,3.43,4.71,6.34Z"/>
          <path class="cls-4" d="M205.12,190.06c.51,6.96-4.08,11.07-8.53,15.26-3.71-1.51-4.51-3.91-2.14-7.2,2.06-2.85,4.22-5.63,6.25-8.49,1.79-2.52,3.14-1.65,4.42.43Z"/>
          <path class="cls-6" d="M289.66,246.68c-3.8.18-4.24-2.68-4.85-5.38,2.44,1.05,4.64,2.32,4.85,5.38Z"/>
          <path class="cls-5" d="M165.32,217.03l.23.06s-.35-.07-.36-.07c0,0,.13.01.13.01Z"/>
          <g>
            <rect class="cls-1" x="55.3" y="120.11" width="99.09" height="48.13"/>
            <polygon class="cls-1" points="40.67 130.49 104.85 67.73 170.91 130.96 40.67 130.49"/>
            <rect class="cls-7" x="93.76" y="143.93" width="24.54" height="20.29" rx="1.97" ry="1.97" transform="translate(260.11 48.05) rotate(90)"/>
          </g>
        </g>
        <g>
          <path class="cls-3" d="M186.61,335.46c-2.74-2.11-3.41-5-2.95-8.23.22-1.54.72-2.99,1.69-4.29,1.44-1.95,2.15-4.24,2.67-6.58.35-1.58.9-3.08,1.83-4.42,3.29-4.78,10.36-5.89,14.96-2.36,1.54,1.18,2.71,2.74,4.28,3.88,1.27.92,2.64,1.67,3.95,2.5,2.39,1.52,4.37,3.36,5,6.28.28,2.83-.62,5.21-3.04,6.75-1.75,1.12-3.7,1.8-5.89,1.15-1.33-.4-2.7-.78-4.07-.9-3.02-.27-5.51,1-7.59,3.1-1.01,1.02-2,2.07-3.28,2.75-2.26,1.2-4.57,1.52-6.97.44-.19-.09-.37-.16-.58-.07Z"/>
          <path class="cls-3" d="M207.06,288.22c.77,3.2.49,6.22-1.4,9.05-2.32,3.47-6.95,4.33-9.78.09-2.45-3.67-2.62-8.81-.24-12.31,1.35-1.99,3.2-3.07,5.62-2.87,2.35.19,3.8,1.64,4.85,3.65.4.77.69,1.56.95,2.39Z"/>
          <path class="cls-3" d="M189.31,295.23c.55,2.26.71,4.51-.53,6.65-1.49,2.58-4.14,3.54-6.85,2.29-4.13-1.9-6.68-5.13-6.93-9.71-.31-5.7,4.52-7.89,8.75-5.95,2.9,1.33,4.67,3.66,5.56,6.72Z"/>
          <path class="cls-3" d="M178.54,321.02c-3.12.89-5.45-.64-7.53-2.51-1.86-1.66-2.92-3.86-3.23-6.39-.43-3.5.83-4.96,3.88-5.73,5.62-1.43,11.94,4.46,11.06,10.2-.36,2.36-1.66,3.9-4.18,4.43Z"/>
          <path class="cls-3" d="M221.68,298.2c1.26,4.45-.12,9.01-3.37,11.28-1.59,1.11-3.42,1.45-5.14.86-1.48-.5-2.47-1.91-3.13-3.4-1.83-4.17-.09-9.75,3.84-12.12,2.7-1.63,6.88-1.52,7.8,3.37Z"/>
        </g>
      </g>
      <g>
        <path class="cls-5" d="M397.32,253.83c-5.28,0-10.1-1.12-14.32-3.33-4.72-2.47-8.52-6.47-11.32-11.89-2.29-4.42-3.99-10.04-5.17-17.18-1.02-6.11-1.68-13.66-1.95-22.46-1.51-6.85-2.24-15.29-2.24-25.72,0-3.47.06-6.53.2-9.36.11-2.52.17-4.7.17-6.44,0-1.98-.08-3.23-.14-3.93-.15-1.57-.23-3.07-.23-4.43v-4.86c0-3.93.2-8.6.58-13.88.38-5.24.82-10.41,1.31-15.35.44-4.54,1.06-8.2,1.92-11.22-.09-.81-.13-1.65-.13-2.53,0-5.84.27-11.12.81-15.68.5-4.27,1.08-8.5,1.71-12.55.63-4.05,1.4-8.36,2.29-12.79.8-4,1.56-8.85,2.25-14.41l.03-.24c1.39-9.43,3.1-16.4,5.25-21.31,2.08-4.76,7.75-12.77,22.29-12.77,5.34,0,10.78,1.69,16.17,5.03,6.94,4.31,10.77,11.18,10.77,19.32,0,2.3-.06,5.25-.19,9.02-.13,3.78-.46,8.56-.96,14.22-.5,5.54-1.11,12.23-1.84,20.08-.48,5.12-1.06,10.8-1.75,17.18.19,0,.39,0,.58,0,1.63,0,2.94-.04,3.89-.13,1.73-.16,3.38-.23,4.93-.23,4.94,0,8.48.53,11.35,1.7.34.05,1.13.13,2.61.13,6.17,0,10.83-.16,13.84-.49,2.55-.27,4.26-.39,5.54-.39.73,0,1.43.05,2.1.15h4.24c2.9,0,5.7-.07,8.37-.21-.46-5.05-1.38-11.23-2.77-18.46l-.21-2.16v-6.61c0-3.08-.11-6.2-.34-9.27-.19-2.54-.56-4.84-1.1-6.82l-.4-3.02c0-6.15,2.15-26.2,29.87-26.2,10.29,0,18.53,5.76,22.6,15.82,2.71,6.71,4.58,14.6,5.55,23.45.89,8.14,1.41,16.6,1.54,25.14.13,8.85,1.11,13.87,1.9,16.53l.49,3.3c0,6.18.18,13.62.54,22.11.36,8.53,1.03,18.56,1.99,29.82l-.18,3.25c-.03.17-.14.81-.14,2.14v12.67c0,2.27.11,4.72.33,7.3l.04.96c0,.72.05,2.05.3,4.23.25,2.26.5,4.63.75,7.1.23,2.33.47,4.53.71,6.59.31,2.69.45,4.51.45,5.95,0,16.84-9.9,27.3-25.83,27.3-15.02,0-22.6-7.16-26.31-13.17l-1.63-4.62-3.31-26.45-.09-1.43v-2.94c0-1.32-.11-3.2-.32-5.59-.23-2.53-.52-5.08-.86-7.55-.4-2.96-.72-5.46-.96-7.65-.3-2.65-.44-4.57-.44-6.03l.11-1.61c.21-1.47.37-2.9.47-4.26.1-1.28.15-2.66.15-4.05,0-.47,0-.94-.01-1.4-.3.04-.6.08-.92.12-6.91.93-15.1,1.39-25.04,1.39-4.43,0-8.59-.13-12.37-.39-3.9-.26-7.55-.68-10.85-1.23l-3.24-1.06c.39.2.64.27.64.27-.53-.16-3.26-.83-13.14-1.12-.1,1.57-.19,3.09-.26,4.55-.23,4.54-.35,8.72-.35,12.46,0,8.67.74,13,1.37,15.11l.43,2.32c.96,11.79,1.76,20.86,2.37,26.97.61,6.18,1.05,10.61,1.29,13.32.35,3.94.42,5.02.42,5.83v1.84c0,10.71-6.88,22.15-26.19,22.15Z"/>
        <path class="cls-3" d="M400.63,23c3.18,0,6.55,1.1,10.1,3.31,3.55,2.2,5.33,5.39,5.33,9.55,0,2.2-.06,5.09-.18,8.63-.13,3.55-.43,8.08-.92,13.59-.49,5.51-1.1,12.19-1.84,20.02-.73,7.84-1.72,17.15-2.94,27.92,3.18,1.23,7.59,1.84,13.23,1.84,1.96,0,3.61-.06,4.96-.18,1.34-.12,2.63-.18,3.86-.18,3.43,0,5.81.31,7.16.92,1.34.61,3.61.92,6.8.92,6.61,0,11.63-.18,15.06-.55,2.05-.22,3.49-.33,4.32-.33.55,0,.83.05.83.15h5.51c4.9,0,9.49-.18,13.78-.55,4.28-.37,6.43-1.89,6.43-4.59,0-6.61-1.1-15.67-3.31-27.19v-6.61c0-3.43-.13-6.8-.37-10.1-.25-3.31-.73-6.3-1.47-9,0-9.79,6.12-14.69,18.37-14.69,5.63,0,9.61,2.88,11.94,8.63,2.32,5.76,3.91,12.55,4.78,20.39.86,7.84,1.34,15.86,1.47,24.06.12,8.21.92,14.76,2.39,19.65,0,6.37.18,13.9.55,22.59.37,8.7,1.04,18.8,2.02,30.31-.25,1.23-.37,2.7-.37,4.41v12.67c0,2.57.12,5.33.37,8.27,0,1.47.12,3.31.37,5.51.24,2.2.49,4.54.73,6.98.24,2.45.49,4.72.73,6.8.24,2.08.37,3.62.37,4.59,0,10.53-4.78,15.8-14.33,15.8-7.84,0-13.35-2.57-16.53-7.72l-3.31-26.45v-2.94c0-1.71-.13-3.92-.37-6.61-.25-2.69-.55-5.38-.92-8.08-.37-2.69-.68-5.14-.92-7.35-.25-2.2-.37-3.79-.37-4.78.24-1.71.42-3.36.55-4.96.12-1.59.18-3.24.18-4.96,0-2.69-.13-5.2-.37-7.53-.25-2.33-.61-4.71-1.1-7.16-1.96.49-6.12,1.17-12.49,2.02-6.37.86-14.21,1.29-23.51,1.29-4.17,0-8.02-.12-11.57-.37-3.55-.24-6.8-.61-9.74-1.1-2.94-1.47-12.37-2.2-28.29-2.2-.49,5.64-.86,10.84-1.1,15.61-.25,4.78-.37,9.13-.37,13.04,0,8.08.61,14.21,1.84,18.37.98,12,1.77,21.07,2.39,27.19.61,6.12,1.04,10.53,1.29,13.23.24,2.69.37,4.28.37,4.78v1.84c0,7.1-4.9,10.65-14.7,10.65-3.43,0-6.43-.68-9-2.02-2.57-1.35-4.72-3.67-6.43-6.98-1.72-3.31-3.07-7.9-4.04-13.78-.98-5.88-1.6-13.23-1.84-22.04-1.47-6.12-2.2-14.2-2.2-24.25,0-3.18.06-6.12.18-8.82.12-2.69.18-5.02.18-6.98s-.06-3.61-.18-4.96c-.13-1.34-.18-2.51-.18-3.49v-4.78c0-3.67.18-8.02.55-13.04.37-5.02.79-10.04,1.29-15.06.49-5.02,1.22-8.75,2.2-11.21,0-.49-.06-1.04-.18-1.65-.13-.61-.18-1.29-.18-2.02,0-5.38.24-10.16.73-14.33.49-4.16,1.04-8.2,1.65-12.12.61-3.91,1.34-8.02,2.2-12.31.86-4.28,1.65-9.37,2.39-15.25,1.22-8.32,2.69-14.45,4.41-18.37,1.71-3.91,5.63-5.88,11.76-5.88M373.81,149.01v.09-.09M400.63,0c-21.87,0-30.25,13.75-32.83,19.67-2.59,5.93-4.53,13.63-6.09,24.24l-.07.49c-.66,5.28-1.37,9.86-2.12,13.6-.92,4.57-1.72,9.04-2.38,13.28-.65,4.17-1.25,8.54-1.77,12.98-.6,5.05-.89,10.63-.89,17.01,0,.5.01.99.03,1.48-.77,3.22-1.34,6.89-1.76,11.17-.49,5.01-.94,10.27-1.33,15.61-.41,5.63-.61,10.45-.61,14.72v4.86c0,1.69.1,3.54.28,5.49.03.4.09,1.29.09,2.87s-.05,3.57-.16,5.95c-.14,2.96-.21,6.19-.21,9.85,0,10.74.75,19.64,2.28,27.11.31,8.96.99,16.5,2.07,22.97,1.38,8.32,3.45,15.06,6.31,20.58,3.89,7.53,9.34,13.17,16.16,16.75,5.92,3.09,12.53,4.65,19.68,4.65,26.04,0,37.7-16.9,37.7-33.65v-1.84c0-1.35-.09-2.75-.46-6.83-.24-2.63-.64-6.76-1.31-13.45-.61-6.06-1.4-15.06-2.35-26.78l-.87-4.65c-.09-.31-.9-3.28-.9-11.86,0-1.49.02-3.07.06-4.71l2.89.94c3.67.62,7.7,1.08,11.99,1.37,3.99.28,8.42.42,13.13.42,4.97,0,9.54-.11,13.76-.33.06,1.62.21,3.51.48,5.92.25,2.29.58,4.9.99,7.96.31,2.3.58,4.67.8,7.04.24,2.68.27,4,.27,4.54v2.94l.18,2.85,3.31,26.45,3.26,9.24c4.3,6.95,14.71,18.62,36.1,18.62s37.33-15.59,37.33-38.8c0-1.9-.16-4.13-.52-7.24v-.07c-.25-2-.48-4.13-.69-6.34v-.06c-.26-2.51-.51-4.9-.76-7.17v-.06c-.22-1.91-.23-2.79-.23-2.95l-.08-1.92c-.19-2.27-.29-4.4-.29-6.34v-12.67c0-.31.01-.47.01-.48,0,.02-.02.23-.1.6l.37-6.48c-.95-11.08-1.6-20.95-1.96-29.32-.35-8.33-.53-15.61-.53-21.62l-.97-6.61c-.48-1.6-1.3-5.47-1.42-13.38-.14-8.91-.68-17.73-1.6-26.22-1.09-9.92-3.21-18.83-6.31-26.51-5.84-14.42-18.28-23.02-33.27-23.02-11.45,0-20.92,2.93-28.15,8.72-8.52,6.82-13.22,17.11-13.22,28.98l.81,6.04c.34,1.26.59,2.83.72,4.67.2,2.75.3,5.58.3,8.39v6.61l.41,4.32c.33,1.74.63,3.37.89,4.9-.51-.03-1.02-.04-1.54-.04-1.74,0-3.76.14-6.77.46-1.79.19-5.43.42-12.61.42-.08,0-.15,0-.21,0-3.02-.99-6.37-1.56-10.37-1.76.15-1.48.28-2.92.42-4.32.64-6.84,1.26-13.61,1.85-20.11.52-5.87.85-10.85,1-14.83.13-3.93.2-7.01.2-9.45,0-12.09-5.9-22.7-16.19-29.09-7.24-4.5-14.72-6.77-22.24-6.77h0Z"/>
      </g>
      <g>
        <path class="cls-5" d="M632.59,242.53c-5.55,0-11.89-.81-19.39-2.48l-4.16-1.85-20.21-14.33-1.24-1.02c-11.17-10.54-16.83-24.85-16.83-42.53,0-6.09.92-12.8,2.75-19.93,1.77-6.95,4.38-14.04,7.76-21.06,3.33-6.93,7.45-13.82,12.23-20.47,4.96-6.88,10.81-13.15,17.4-18.65l3.29-1.92c7.4-2.81,14.66-5.2,21.57-7.12,5.03-1.4,9.2-2.43,12.62-3.11,6.27-5.58,13.82-8.51,22.05-8.51,5.04,0,12.39,1.68,18.74,9.67,3.53,4.46,6.58,9.98,9.07,16.42,2.32,6.02,4.18,12.69,5.53,19.83,1.23,6.5,2.12,12.83,2.65,18.81l4.56,18.61c1.11,4.62,2.85,8.51,5.19,11.64,2.55,3.4,5.78,6.48,9.61,9.17,9.59,6.45,11.61,14.51,11.61,20.14,0,4.08-1.06,8.16-3.16,12.15-1.82,3.46-4.21,6.58-7.09,9.28-2.66,2.49-5.53,4.6-8.54,6.26-3.9,2.17-8.01,3.28-12.19,3.28l-4.03-.73c-2.85-1.07-5.94-2.75-9.43-5.13-3.05-2.08-6.13-4.45-9.13-7.05-1.4-1.2-2.76-2.49-4.09-3.85-4.95,6.57-11.23,12.84-18.78,18.73l-5.04,2.25c-17.88,3.22-21.43,3.49-23.34,3.49ZM626.18,178.94c2.3,3.63,5.31,6.71,9.12,9.32.05-.02.09-.05.13-.07.58-.31,1.11-.76,1.65-1.38.9-1.04,1.83-2.48,2.77-4.29,1.22-2.34,2.65-5.38,4.24-9.01l.52-1.04c2.78-4.91,4.74-9.18,5.84-12.67.8-2.56,1.18-4.4,1.36-5.67-.47-1.53-.87-3.2-1.3-5.02-.47-1.99-1.04-4.48-1.69-7.44-.22.08-.46.18-.71.28-1.44.59-3.92,1.94-7.43,5-1.85,1.61-4.77,4.91-8.18,11.5l-.09.16c-3.74,6.94-5.79,13.62-6.24,20.34Z"/>
        <path class="cls-3" d="M670.43,91.06c3.67,0,6.92,1.78,9.74,5.33,2.81,3.55,5.26,8.02,7.35,13.41,2.08,5.39,3.73,11.33,4.96,17.82,1.22,6.49,2.08,12.67,2.57,18.55l4.78,19.47c1.47,6.12,3.86,11.39,7.16,15.8,3.31,4.41,7.4,8.33,12.31,11.76,4.41,2.94,6.61,6.49,6.61,10.65,0,2.2-.61,4.47-1.84,6.8-1.23,2.33-2.82,4.41-4.78,6.25-1.96,1.84-4.04,3.37-6.25,4.59-2.2,1.23-4.41,1.84-6.61,1.84-1.96-.73-4.29-2.02-6.98-3.86-2.7-1.84-5.39-3.92-8.08-6.25-2.7-2.32-5.21-4.96-7.53-7.9-2.33-2.94-4.1-5.88-5.33-8.82l-2.57,6.25c-4.66,8.82-12,17.15-22.04,24.98-12.25,2.2-19.35,3.31-21.31,3.31-4.66,0-10.29-.73-16.9-2.2l-20.21-14.33c-8.82-8.32-13.23-19.71-13.23-34.17,0-5.14.79-10.84,2.39-17.08,1.59-6.25,3.91-12.55,6.98-18.92,3.06-6.37,6.8-12.61,11.21-18.74,4.41-6.12,9.55-11.63,15.43-16.53,7.1-2.69,13.96-4.96,20.57-6.8s11.63-3,15.06-3.49c4.65-5.14,10.16-7.71,16.53-7.71M634.06,200.91c2.69-.73,4.96-1.59,6.8-2.57,1.84-.98,3.49-2.32,4.96-4.04,1.47-1.71,2.88-3.86,4.22-6.43,1.34-2.57,2.88-5.81,4.59-9.74,3.18-5.63,5.45-10.59,6.8-14.88,1.34-4.28,2.02-7.9,2.02-10.84-.49-.24-2.33-7.96-5.51-23.15h-5.51c-2.45,0-5.33.68-8.63,2.02-3.31,1.35-6.86,3.67-10.65,6.98-3.8,3.31-7.41,8.27-10.84,14.88-5.14,9.55-7.71,19.1-7.71,28.66,4.16,8.08,10.65,14.45,19.47,19.1M670.43,68.06c-10.08,0-19.36,3.21-27.25,9.36-3.06.69-6.55,1.58-10.5,2.68-7.24,2.01-14.84,4.52-22.57,7.45l-6.58,3.84c-7.33,6.11-13.85,13.1-19.36,20.75-5.18,7.2-9.65,14.68-13.27,22.22-3.71,7.7-6.58,15.51-8.54,23.21-2.05,8.04-3.1,15.71-3.1,22.76,0,20.67,7.07,38.27,20.44,50.89l2.48,2.04,20.21,14.33,8.32,3.69c8.33,1.85,15.49,2.75,21.89,2.75,2.73,0,6.52-.28,25.38-3.67l10.08-4.5c4.72-3.68,9-7.52,12.84-11.49,1.86,1.45,3.74,2.83,5.62,4.1,4.25,2.9,8.14,4.99,11.86,6.39l8.06,1.46c6.16,0,12.16-1.6,17.81-4.75,3.79-2.1,7.43-4.76,10.77-7.89,3.84-3.6,6.99-7.74,9.41-12.31,2.98-5.67,4.49-11.56,4.49-17.52,0-11.87-5.89-22.37-16.58-29.61-2.84-2-5.11-4.16-6.94-6.6-1.4-1.86-2.47-4.34-3.2-7.36l-.03-.11-4.36-17.78c-.58-6.09-1.49-12.48-2.72-19.02-1.48-7.84-3.54-15.18-6.1-21.83-2.92-7.54-6.54-14.06-10.77-19.41-7.21-9.07-17.06-14.05-27.77-14.05h0Z"/>
      </g>
      <g>
        <path class="cls-5" d="M821.79,243.99c-5.83,0-11.7-1.29-17.53-3.83-3.5,1.56-7.25,2.37-11.13,2.37-6.48,0-13.49-2.16-21.42-6.61l-5.82-11.16c.21-2.1.31-4.44.31-6.95v-9.55c0-1.39-.09-2.7-.26-3.91-.28-1.92-.55-4.42-.8-7.42-.26-2.95-.52-6.86-.76-11.59-.25-4.77-.5-11.03-.74-18.6-.23-7.32-.68-13.06-1.33-17.08-.66-4.1-1.11-5.32-1.13-5.37,0,.01.12.32.41.8l-1.51-4.22c-1.24-8.41-2.37-17.07-3.36-25.73-.96-8.34-1.94-16.38-2.92-23.87-.95-7.25-1.92-13.86-2.88-19.63-1.09-6.53-1.97-9.85-2.51-11.49l-.59-3.62c0-7.98,2.04-15,6.07-20.85,4.82-7,12.1-10.86,20.5-10.86,3.68,0,7.25.57,10.62,1.69,4.25,1.42,8.04,4.09,11.26,7.96,2.69,3.23,4.94,7.32,6.89,12.5,1.82,4.85,3.11,10.79,3.96,18.15.71,5.95,1.25,10.17,1.6,12.47l1.1,7.35c.38,2.53.82,6.03,1.34,10.72.16,1.44.36,3.19.59,5.2,2.72-1.21,5.34-2.24,7.85-3.08,3.83-1.27,7.76-2.07,11.72-2.39,3.41-.27,7.36-.4,11.76-.4,6.05,0,11.71,1,16.82,2.98,4.84,1.87,9.16,4.29,12.86,7.18,3.49,2.74,6.59,5.76,9.2,8.98,2.42,2.99,4.51,5.96,6.25,8.85l.39.69c6.69,13.09,10.07,25.48,10.07,36.82,0,8.64-1.93,17.47-5.72,26.24l-7.73,17.68-2.15,3.26-11.34,12.07c-9.11,9.95-18.49,16.6-27.88,19.79-8.87,3-16.09,4.47-22.06,4.47ZM821.4,188.66c.64-.19,1.45-.48,2.48-.91,2.51-1.08,5.06-2.61,7.57-4.57,2.55-1.98,4.91-4.35,7.02-7.03,1.54-1.96,2.48-3.92,2.87-5.99,1.38-7.72,1.61-10.46,1.64-11.28-.05-.26-.19-.91-.56-2.11-.45-1.42-1.11-2.86-1.98-4.27-.66-1.08-1.45-2.04-2.4-2.93-1.28.07-3.86.61-8.2,3.17l-10.13,5.99,1.69,29.92Z"/>
        <path class="cls-3" d="M774.39,36.31c2.45,0,4.78.37,6.98,1.1,2.2.73,4.23,2.2,6.06,4.41,1.84,2.2,3.49,5.27,4.96,9.18,1.47,3.92,2.57,9.06,3.31,15.43.73,6.12,1.29,10.41,1.65,12.86.37,2.45.73,4.9,1.1,7.35.37,2.45.79,5.88,1.29,10.29.49,4.41,1.34,11.64,2.57,21.68,4.41-2.45,8.27-4.47,11.57-6.06,3.31-1.59,6.43-2.88,9.37-3.86,2.94-.98,5.94-1.59,9-1.84,3.06-.24,6.67-.37,10.84-.37,4.65,0,8.87.73,12.67,2.2,3.79,1.47,7.1,3.31,9.92,5.51,2.81,2.2,5.26,4.59,7.35,7.16,2.08,2.57,3.86,5.09,5.33,7.53,5.88,11.51,8.82,22.04,8.82,31.59,0,7.11-1.6,14.33-4.78,21.68l-7.72,17.63-11.39,12.12c-7.84,8.58-15.56,14.14-23.15,16.72-7.59,2.57-13.72,3.86-18.37,3.86-5.88,0-11.88-1.84-18-5.51-3.19,2.7-6.74,4.04-10.65,4.04-4.41,0-9.68-1.71-15.8-5.14.24-2.45.37-5.14.37-8.08v-9.55c0-1.96-.13-3.79-.37-5.51-.25-1.71-.49-3.98-.73-6.8-.25-2.81-.49-6.55-.73-11.21-.25-4.65-.49-10.77-.73-18.37-.25-7.84-.73-14.02-1.47-18.55-.73-4.53-1.47-7.41-2.2-8.63-1.23-8.32-2.33-16.77-3.31-25.35-.98-8.57-1.96-16.59-2.94-24.06-.98-7.47-1.96-14.14-2.94-20.02-.98-5.88-1.96-10.29-2.94-13.23,0-5.63,1.34-10.41,4.04-14.33,2.69-3.92,6.37-5.88,11.02-5.88M819.58,200.52c2.45,0,5.38-.73,8.82-2.2,3.43-1.47,6.8-3.49,10.1-6.06,3.31-2.57,6.3-5.57,9-9,2.69-3.43,4.41-7.1,5.14-11.02,1.22-6.85,1.84-11.39,1.84-13.59,0-1.22-.37-3-1.1-5.33-.73-2.33-1.78-4.59-3.12-6.8-1.35-2.2-3-4.16-4.96-5.88-1.96-1.71-4.29-2.57-6.98-2.57-4.17,0-8.94,1.6-14.33,4.78-5.39,3.19-10.78,6.37-16.16,9.55l2.2,38.94c1.71,6.12,4.9,9.18,9.55,9.18M774.39,13.31c-12.3,0-22.95,5.63-29.97,15.85-5.37,7.8-8.09,17.01-8.09,27.36l1.17,7.25c.21.64.99,3.24,2.08,9.77.93,5.62,1.88,12.1,2.82,19.23.97,7.43,1.94,15.41,2.89,23.68,1,8.77,2.14,17.55,3.4,26.09l3.02,8.45c-1.08-1.8-1.46-3.11-1.48-3.17.01.04.28,1,.72,3.68.39,2.42.92,7.09,1.18,15.59.24,7.65.5,13.99.76,18.86.25,4.83.52,8.87.79,12,.27,3.18.56,5.82.87,8.01.09.68.14,1.45.14,2.29v9.55c0,2.14-.09,4.1-.26,5.83l11.64,22.31c9.7,5.44,18.55,8.08,27.05,8.08,3.77,0,7.46-.53,10.99-1.57,5.84,2.02,11.74,3.04,17.66,3.04,7.24,0,15.67-1.66,25.75-5.07,11.4-3.86,22.07-11.34,32.63-22.86l11.29-12.02,4.31-6.53,7.72-17.63.04-.08c4.42-10.22,6.67-20.59,6.67-30.81,0-13.17-3.81-27.32-11.33-42.05l-.77-1.39c-2.01-3.34-4.41-6.75-7.15-10.14-3.18-3.92-6.89-7.55-11.05-10.81-4.6-3.6-9.91-6.57-15.8-8.85-6.45-2.49-13.51-3.76-20.98-3.76-4.7,0-8.96.15-12.65.44-3.02.24-6.01.71-8.95,1.39-.1-.75-.2-1.44-.3-2.08l-1.1-7.35c-.23-1.52-.68-4.84-1.56-12.13-.96-8.29-2.47-15.1-4.61-20.82-2.41-6.42-5.3-11.6-8.83-15.84-4.61-5.53-10.14-9.4-16.46-11.5-4.54-1.51-9.34-2.28-14.25-2.28h0Z"/>
      </g>
      <g>
        <path class="cls-5" d="M984.89,244.53c-5.55,0-11.89-.81-19.39-2.48l-4.16-1.85-20.21-14.33-1.24-1.02c-11.17-10.54-16.83-24.85-16.83-42.53,0-6.09.92-12.8,2.75-19.93,1.77-6.95,4.38-14.03,7.76-21.06,3.33-6.93,7.45-13.82,12.23-20.47,4.96-6.88,10.81-13.15,17.4-18.65l3.29-1.92c7.4-2.81,14.66-5.2,21.57-7.12,5.04-1.4,9.21-2.43,12.62-3.11,6.27-5.58,13.82-8.51,22.05-8.51,5.04,0,12.39,1.68,18.74,9.67,3.53,4.46,6.58,9.98,9.07,16.42,2.32,6.02,4.18,12.69,5.53,19.83,1.23,6.51,2.12,12.83,2.65,18.81l4.56,18.61c1.11,4.62,2.85,8.51,5.19,11.64,2.55,3.4,5.78,6.48,9.61,9.17,9.59,6.45,11.61,14.51,11.61,20.14,0,4.08-1.06,8.16-3.16,12.15-1.82,3.46-4.2,6.57-7.08,9.28-2.67,2.49-5.53,4.6-8.54,6.26-3.9,2.17-8.01,3.28-12.19,3.28l-4.03-.73c-2.85-1.07-5.94-2.75-9.43-5.13-3.05-2.08-6.13-4.45-9.13-7.05-1.4-1.2-2.76-2.49-4.09-3.85-4.95,6.57-11.23,12.84-18.78,18.73l-5.04,2.25c-17.88,3.22-21.43,3.49-23.34,3.49ZM978.48,180.94c2.3,3.63,5.31,6.71,9.12,9.32.05-.02.09-.05.13-.07.58-.31,1.11-.76,1.65-1.38.9-1.04,1.83-2.48,2.77-4.29,1.22-2.34,2.65-5.38,4.24-9.01l.52-1.04c2.78-4.91,4.74-9.18,5.84-12.67.8-2.56,1.18-4.4,1.36-5.67-.47-1.53-.87-3.2-1.3-5.02-.47-1.99-1.04-4.48-1.69-7.44-.22.08-.46.18-.71.28-1.44.59-3.92,1.94-7.43,5-1.85,1.61-4.77,4.91-8.18,11.5l-.08.16c-3.74,6.94-5.79,13.62-6.24,20.34Z"/>
        <path class="cls-3" d="M1022.73,93.06c3.67,0,6.92,1.78,9.74,5.33,2.81,3.55,5.26,8.02,7.35,13.41,2.08,5.39,3.73,11.33,4.96,17.82,1.22,6.49,2.08,12.67,2.57,18.55l4.78,19.47c1.47,6.12,3.86,11.39,7.16,15.8,3.31,4.41,7.41,8.33,12.31,11.76,4.41,2.94,6.61,6.49,6.61,10.65,0,2.2-.61,4.47-1.84,6.8-1.23,2.33-2.82,4.41-4.78,6.25-1.96,1.84-4.04,3.37-6.25,4.59-2.2,1.23-4.41,1.84-6.61,1.84-1.96-.73-4.29-2.02-6.98-3.86-2.7-1.84-5.39-3.92-8.08-6.25-2.7-2.32-5.21-4.96-7.53-7.9-2.33-2.94-4.1-5.88-5.33-8.82l-2.57,6.25c-4.66,8.82-12,17.15-22.04,24.98-12.25,2.2-19.35,3.31-21.31,3.31-4.66,0-10.29-.73-16.9-2.2l-20.21-14.33c-8.82-8.32-13.23-19.71-13.23-34.17,0-5.14.79-10.84,2.39-17.08,1.59-6.25,3.91-12.55,6.98-18.92,3.06-6.37,6.8-12.61,11.21-18.74,4.41-6.12,9.55-11.63,15.43-16.53,7.1-2.69,13.96-4.96,20.57-6.8,6.61-1.84,11.63-3,15.06-3.49,4.65-5.14,10.16-7.71,16.53-7.71M986.35,202.91c2.69-.73,4.96-1.59,6.8-2.57,1.84-.98,3.49-2.32,4.96-4.04,1.47-1.71,2.88-3.86,4.22-6.43,1.34-2.57,2.88-5.81,4.59-9.74,3.18-5.63,5.45-10.59,6.8-14.88,1.34-4.28,2.02-7.9,2.02-10.84-.49-.24-2.33-7.96-5.51-23.15h-5.51c-2.45,0-5.33.68-8.63,2.02-3.31,1.35-6.86,3.67-10.65,6.98-3.8,3.31-7.41,8.27-10.84,14.88-5.14,9.55-7.72,19.1-7.72,28.66,4.16,8.08,10.65,14.45,19.47,19.1M1022.73,70.06c-10.08,0-19.36,3.21-27.25,9.36-3.06.69-6.55,1.58-10.5,2.68-7.24,2.01-14.83,4.52-22.57,7.45l-6.58,3.84c-7.33,6.11-13.85,13.1-19.36,20.75-5.19,7.2-9.65,14.68-13.27,22.22-3.71,7.7-6.58,15.51-8.54,23.21-2.05,8.04-3.1,15.71-3.1,22.76,0,20.67,7.07,38.27,20.44,50.89l2.48,2.04,20.21,14.33,8.32,3.69c8.33,1.85,15.49,2.75,21.89,2.75,2.73,0,6.52-.28,25.38-3.67l10.08-4.5c4.72-3.68,9-7.52,12.84-11.49,1.86,1.45,3.74,2.83,5.62,4.1,4.25,2.9,8.13,4.99,11.86,6.39l8.06,1.46c6.16,0,12.16-1.6,17.81-4.74,3.79-2.1,7.43-4.76,10.77-7.89,3.84-3.6,7-7.74,9.41-12.32,2.98-5.67,4.49-11.56,4.49-17.52,0-11.87-5.89-22.37-16.59-29.61-2.84-2-5.11-4.16-6.93-6.6-1.4-1.86-2.47-4.34-3.2-7.36l-.03-.11-4.36-17.78c-.58-6.09-1.49-12.48-2.72-19.02-1.49-7.84-3.54-15.18-6.1-21.83-2.92-7.54-6.54-14.06-10.77-19.41-7.21-9.07-17.06-14.05-27.77-14.05h0Z"/>
      </g>
      <g>
        <path class="cls-5" d="M1135.37,237.5c-8.16,0-13.45-3.17-16.45-5.84-3.69-3.28-6.44-7.5-8.19-12.56-1.39-4-2.32-8.34-2.78-12.9-.4-4.04-.61-8.13-.61-12.17,0-3.03.14-6.15.41-9.27.25-2.94.63-5.99,1.14-9.05l2.9-34.8.12-.94,2.59-15.52c-.4-1.61-1.01-3.36-1.82-5.25-2.14-4.98-3.13-8.99-3.13-12.61,0-7.12,2.83-13.81,8.18-19.37,5.47-5.67,12.59-8.67,20.59-8.67,6.04,0,11.02,1.5,14.8,4.47,1.1.86,2.57,2.18,4.97,4.95,2.12-.73,4.04-1.27,5.79-1.64,3.73-.77,7.98-1.16,12.64-1.16,14.84,0,28.19,3.61,39.67,10.73,12.54,7.78,20.42,20.47,23.45,37.73l.06.36c.72,5.05,1.38,9.24,1.96,12.46.62,3.52,1.19,6.94,1.7,10.18.48,3.13.97,6.48,1.5,10.28.47,3.41,1.18,7.75,2.13,12.93l.19,2.06v2.94c0,.82.02,2.89.18,7.52.15,4.75-.31,9.59-1.36,14.41-1.24,5.65-3.67,10.76-7.21,15.2-3.25,4.07-9.36,8.91-20,8.91-14.96,0-25.2-7.42-28.12-20.36l-.13-4.39c.14-.88.22-1.92.22-3.1v-16.9c0-6.03-.18-12.7-.54-19.81-.34-6.78-1.08-13.24-2.2-19.2-.62-3.27-1.25-4.88-1.57-5.53-4.44-2.95-6.85-3.28-7.71-3.28-4.02,0-6.08,1.41-7.29,2.47-.77.68-3.47,3.68-6.3,14.02-.22,3.2-.44,6.66-.65,10.31-.25,4.26-.61,9.09-1.08,14.38,0,3.86.13,8.13.35,12.7.23,4.9.6,10.53,1.08,16.76l.03.89c0,8.09-3.34,15.15-9.65,20.41-5.78,4.81-12.46,7.25-19.85,7.25Z"/>
        <path class="cls-3" d="M1138.31,90.07c3.43,0,6,.68,7.71,2.02,1.71,1.35,4.53,4.59,8.45,9.74,4.9-2.2,8.82-3.61,11.76-4.22,2.94-.61,6.37-.92,10.29-.92,12.73,0,23.94,3,33.62,9,9.67,6,15.73,15.98,18.19,29.94.73,5.14,1.41,9.43,2.02,12.86.61,3.43,1.16,6.74,1.65,9.92.49,3.19.98,6.56,1.47,10.1.49,3.55,1.22,8.02,2.2,13.41v2.94c0,1.47.06,4.1.18,7.9.12,3.8-.25,7.66-1.1,11.57-.86,3.92-2.51,7.41-4.96,10.47-2.45,3.07-6.12,4.59-11.02,4.59-9.55,0-15.19-3.79-16.9-11.39.24-1.47.37-3.12.37-4.96v-16.9c0-6.25-.18-13.04-.55-20.39-.37-7.35-1.17-14.26-2.39-20.76-1.23-6.49-3.07-10.59-5.51-12.31-5.64-3.91-10.65-5.88-15.06-5.88-5.88,0-10.84,1.78-14.88,5.33-4.04,3.55-7.41,10.47-10.1,20.76-.25,3.43-.49,7.29-.73,11.57-.25,4.29-.61,9.13-1.1,14.51,0,4.17.12,8.76.37,13.78.24,5.02.61,10.72,1.1,17.08,0,4.66-1.84,8.51-5.51,11.57s-7.84,4.59-12.49,4.59c-3.67,0-6.61-.98-8.82-2.94-2.2-1.96-3.86-4.53-4.96-7.71-1.1-3.18-1.84-6.61-2.2-10.29-.37-3.67-.55-7.35-.55-11.02,0-2.69.12-5.45.37-8.27.24-2.81.61-5.69,1.1-8.63l2.94-35.27,2.94-17.63c-.49-2.94-1.47-6.12-2.94-9.55-1.47-3.43-2.2-6.12-2.2-8.08,0-4.16,1.65-7.96,4.96-11.39,3.31-3.43,7.41-5.14,12.31-5.14M1138.31,67.07c-11.2,0-21.17,4.21-28.86,12.17-7.47,7.75-11.41,17.21-11.41,27.36,0,5.23,1.29,10.68,4.07,17.15.23.54.43,1.04.59,1.49l-2.14,12.85-.23,1.87-2.86,34.36c-.51,3.2-.91,6.39-1.17,9.49-.3,3.41-.45,6.86-.45,10.23,0,4.42.22,8.9.67,13.31.54,5.45,1.67,10.67,3.36,15.53,2.4,6.93,6.24,12.78,11.42,17.38,4.49,3.99,12.31,8.74,24.09,8.74,10.01,0,19.42-3.43,27.21-9.92,8.89-7.41,13.79-17.79,13.79-29.25l-.07-1.78c-.47-6.11-.83-11.63-1.06-16.41-.21-4.21-.32-8.12-.34-11.67.46-5.19.82-9.96,1.06-14.19.18-3.19.37-6.21.56-9.02.32-1.13.64-2.11.93-2.96.61,4.15,1.03,8.53,1.26,13.09.35,6.93.52,13.41.52,19.24v16.9c0,.84-.06,1.22-.06,1.24l.26,8.78c2.15,9.56,7.37,17.36,15.1,22.56,6.67,4.49,14.83,6.77,24.24,6.77,11.87,0,22.16-4.7,28.98-13.23,4.66-5.83,7.84-12.52,9.46-19.9,1.26-5.77,1.81-11.56,1.63-17.23-.16-4.67-.17-6.57-.17-7.17v-2.94l-.37-4.12c-.92-5.03-1.6-9.2-2.05-12.41-.54-3.89-1.04-7.29-1.52-10.46-.52-3.37-1.11-6.87-1.74-10.45-.56-3.13-1.2-7.18-1.9-12.1l-.12-.72c-4.51-25.68-18.1-38.92-28.71-45.51-13.34-8.27-28.73-12.46-45.75-12.46-5.52,0-10.41.46-14.95,1.4-.01,0-.02,0-.03,0-.43-.37-.85-.72-1.27-1.05l-.07-.05c-5.86-4.58-13.22-6.91-21.89-6.91h0Z"/>
      </g>
      <text class="cls-2" transform="translate(393.98 314.23)"><tspan x="0" y="0">ศูนย์ช่วยเหลือสุนัขพลัดหลง เชียงใหม่</tspan></text>
    </g>
  </g>
</svg>